<svg xmlns="http://www.w3.org/2000/svg" width="48" height="64" viewBox="0 0 48 64"><rect x="17.5" y="53" width="5.1" height="4.7" rx="1.6" fill="#F6D3B3" stroke="#3C2819" stroke-width="1.1" stroke-linejoin="round" stroke-linecap="round"/><rect x="21" y="53.6" width="1.1" height="3.1" rx="0.5" fill="#F1B985"/><path d="M17.05,56.5 L23.05,56.5 L23.35,60.1 Q19.65,61.9 16.75,60.3 Z" fill="#E8879C" stroke="#3C2819" stroke-width="1.1" stroke-linejoin="round" stroke-linecap="round"/><clipPath id="v4frontassistendre0s201565"><path d="M17.05,56.5 L23.05,56.5 L23.35,60.1 Q19.65,61.9 16.75,60.3 Z"/></clipPath><g clip-path="url(#v4frontassistendre0s201565)"><path d="M16.65,59.8 Q19.65,61.5 23.45,59.6 L23.45,62.1 L16.65,62.1 Z" fill="#D73155"/></g><path d="M17.05,56.5 L23.05,56.5 L23.35,60.1 Q19.65,61.9 16.75,60.3 Z" fill="none" stroke="#3C2819" stroke-width="1.1" stroke-linejoin="round" stroke-linecap="round"/><ellipse cx="19.05" cy="58.1" rx="0.9" ry="0.5" fill="#EEA5B5" stroke="none"/><rect x="25.4" y="53" width="5.1" height="4.7" rx="1.6" fill="#F6D3B3" stroke="#3C2819" stroke-width="1.1" stroke-linejoin="round" stroke-linecap="round"/><rect x="28.9" y="53.6" width="1.1" height="3.1" rx="0.5" fill="#F1B985"/><path d="M24.95,56.5 L30.95,56.5 L31.25,60.1 Q27.55,61.9 24.65,60.3 Z" fill="#E8879C" stroke="#3C2819" stroke-width="1.1" stroke-linejoin="round" stroke-linecap="round"/><clipPath id="v4frontassistendre0s280565"><path d="M24.95,56.5 L30.95,56.5 L31.25,60.1 Q27.55,61.9 24.65,60.3 Z"/></clipPath><g clip-path="url(#v4frontassistendre0s280565)"><path d="M24.55,59.8 Q27.55,61.5 31.35,59.6 L31.35,62.1 L24.55,62.1 Z" fill="#D73155"/></g><path d="M24.95,56.5 L30.95,56.5 L31.25,60.1 Q27.55,61.9 24.65,60.3 Z" fill="none" stroke="#3C2819" stroke-width="1.1" stroke-linejoin="round" stroke-linecap="round"/><ellipse cx="26.95" cy="58.1" rx="0.9" ry="0.5" fill="#EEA5B5" stroke="none"/><g transform="translate(0 8.5)"><path d="M12.6,43.6 L35.4,43.6 L38.41,51.7 Q24,53.5 9.59,51.7 Z" fill="#4A4E5C" stroke="#3C2819" stroke-width="1.1" stroke-linejoin="round" stroke-linecap="round"/><clipPath id="v4frontassistendre0sk"><path d="M12.6,43.6 L35.4,43.6 L38.41,51.7 Q24,53.5 9.59,51.7 Z"/></clipPath><g clip-path="url(#v4frontassistendre0sk)"><path d="M27.2,43.6 L48,43.6 L48,54.7 L28.2,54.7 Z" fill="#3A3D48"/><line x1="18.87" y1="46" x2="16.87" y2="52.1" stroke="#3A3D48" stroke-width="0.6" stroke-linecap="round"/><line x1="25.14" y1="46" x2="25.59" y2="52.1" stroke="#3A3D48" stroke-width="0.6" stroke-linecap="round"/><line x1="13.6" y1="44.6" x2="11.19" y2="51.3" stroke="#70768C" stroke-width="0.9" stroke-linecap="round"/></g><path d="M12.6,43.6 L35.4,43.6 L38.41,51.7 Q24,53.5 9.59,51.7 Z" fill="none" stroke="#3C2819" stroke-width="1.1" stroke-linejoin="round" stroke-linecap="round"/><path d="M15.1,32.6 Q24,30 32.9,32.6 Q35.85,38.7 35.2,44.8 Q24,47.8 12.8,44.8 Q12.15,38.7 15.1,32.6 Z" fill="#5E3A22" stroke="#3C2819" stroke-width="1.1" stroke-linejoin="round" stroke-linecap="round"/><clipPath id="v4frontassistendre0t"><path d="M15.1,32.6 Q24,30 32.9,32.6 Q35.85,38.7 35.2,44.8 Q24,47.8 12.8,44.8 Q12.15,38.7 15.1,32.6 Z"/></clipPath><g clip-path="url(#v4frontassistendre0t)"><rect x="27.2" y="30" width="14" height="22" fill="#4D301C"/><path d="M8,44.199999999999996 Q24,47.199999999999996 40,44.199999999999996 L40,52 L8,52 Z" fill="#4D301C"/><rect x="15.2" y="34" width="1.3" height="10" rx="0.6" fill="#AD6A3E"/></g><path d="M15.1,32.6 Q24,30 32.9,32.6 Q35.85,38.7 35.2,44.8 Q24,47.8 12.8,44.8 Q12.15,38.7 15.1,32.6 Z" fill="none" stroke="#3C2819" stroke-width="1.1" stroke-linejoin="round" stroke-linecap="round"/><path d="M20.8,31.4 Q24,34.4 27.2,31.4" fill="none" stroke="#3C2819" stroke-width="0.8" stroke-linejoin="round" stroke-linecap="round"/></g><path d="M15.41,43.58 L14.1,50.9 L14.84,50.58" fill="none" stroke="#3C2819" stroke-width="6.3" stroke-linecap="round" stroke-linejoin="round"/><path d="M15.41,43.58 L14.1,50.9 L14.84,50.58" fill="none" stroke="#5E3A22" stroke-width="4.1" stroke-linecap="round" stroke-linejoin="round"/><path d="M14.84,50.58 L17.3,49.5" fill="none" stroke="#3C2819" stroke-width="5.48" stroke-linecap="round" stroke-linejoin="round"/><path d="M14.84,50.58 L17.3,49.5" fill="none" stroke="#F6D3B3" stroke-width="3.28" stroke-linecap="round" stroke-linejoin="round"/><path d="M13.37,51.22 L15.2,50.42" fill="none" stroke="#3C2819" stroke-width="6.3" stroke-linecap="round" stroke-linejoin="round"/><path d="M13.37,51.22 L15.2,50.42" fill="none" stroke="#5E3A22" stroke-width="4.1" stroke-linecap="round" stroke-linejoin="round"/><path d="M16.94,52.06 Q18.08,49.16 15.17,48.02" fill="none" stroke="rgba(0,0,0,.2)" stroke-width="0.6" stroke-linecap="round"/><ellipse cx="19.2" cy="49.54" rx="1.03" ry="1.46" fill="#F6D3B3" stroke="#3C2819" stroke-width="0.9" stroke-linejoin="round" stroke-linecap="round"/><path d="M15.3,50.49 L15.3,48.06 Q15.3,46.3 17.3,46.3 Q19.3,46.3 19.3,48.06 L19.3,50.49 Q17.3,51.84 15.3,50.49 Z" fill="#F6D3B3" stroke="#3C2819" stroke-width="0.9" stroke-linejoin="round" stroke-linecap="round"/><line x1="16.65" y1="46.65" x2="16.65" y2="48.06" stroke="#3C2819" stroke-width="0.42" stroke-linecap="round"/><line x1="17.95" y1="46.65" x2="17.95" y2="48.06" stroke="#3C2819" stroke-width="0.42" stroke-linecap="round"/><path d="M32.59,43.58 L33.9,50.9 L33.16,50.58" fill="none" stroke="#3C2819" stroke-width="6.3" stroke-linecap="round" stroke-linejoin="round"/><path d="M32.59,43.58 L33.9,50.9 L33.16,50.58" fill="none" stroke="#5E3A22" stroke-width="4.1" stroke-linecap="round" stroke-linejoin="round"/><path d="M33.16,50.58 L30.7,49.5" fill="none" stroke="#3C2819" stroke-width="5.48" stroke-linecap="round" stroke-linejoin="round"/><path d="M33.16,50.58 L30.7,49.5" fill="none" stroke="#F6D3B3" stroke-width="3.28" stroke-linecap="round" stroke-linejoin="round"/><path d="M34.63,51.22 L32.8,50.42" fill="none" stroke="#3C2819" stroke-width="6.3" stroke-linecap="round" stroke-linejoin="round"/><path d="M34.63,51.22 L32.8,50.42" fill="none" stroke="#5E3A22" stroke-width="4.1" stroke-linecap="round" stroke-linejoin="round"/><path d="M32.83,48.02 Q29.92,49.16 31.06,52.06" fill="none" stroke="rgba(0,0,0,.2)" stroke-width="0.6" stroke-linecap="round"/><ellipse cx="28.8" cy="49.54" rx="1.03" ry="1.46" fill="#F6D3B3" stroke="#3C2819" stroke-width="0.9" stroke-linejoin="round" stroke-linecap="round"/><path d="M28.7,50.49 L28.7,48.06 Q28.7,46.3 30.7,46.3 Q32.7,46.3 32.7,48.06 L32.7,50.49 Q30.7,51.84 28.7,50.49 Z" fill="#F6D3B3" stroke="#3C2819" stroke-width="0.9" stroke-linejoin="round" stroke-linecap="round"/><line x1="30.05" y1="46.65" x2="30.05" y2="48.06" stroke="#3C2819" stroke-width="0.42" stroke-linecap="round"/><line x1="31.35" y1="46.65" x2="31.35" y2="48.06" stroke="#3C2819" stroke-width="0.42" stroke-linecap="round"/><g transform="translate(0 8.5)"><defs><linearGradient id="v4frontassistendre0hg" gradientUnits="userSpaceOnUse" x1="0" y1="20" x2="0" y2="29"><stop offset="0" stop-color="#D9935A"/><stop offset="1" stop-color="#D9D4CC"/></linearGradient><linearGradient id="v4frontassistendre0hs" gradientUnits="userSpaceOnUse" x1="0" y1="20" x2="0" y2="29"><stop offset="0" stop-color="#B96A2B"/><stop offset="1" stop-color="#AA9F8D"/></linearGradient></defs><path d="M11.4,21.6 Q10.4,7.2 24,6.6 Q37.6,7.2 36.6,21.6 Q36.8,26.4 35,27.6 L13,27.6 Q11.2,26.4 11.4,21.6 Z" fill="url(#v4frontassistendre0hg)" stroke="#3C2819" stroke-width="1.1" stroke-linejoin="round" stroke-linecap="round"/><clipPath id="v4frontassistendre0h"><path d="M11.4,21.6 Q10.4,7.2 24,6.6 Q37.6,7.2 36.6,21.6 Q36.8,26.4 35,27.6 L13,27.6 Q11.2,26.4 11.4,21.6 Z"/></clipPath><g clip-path="url(#v4frontassistendre0h)"><rect x="8" y="24.6" width="32" height="10" fill="url(#v4frontassistendre0hs)"/></g><path d="M11.4,21.6 Q10.4,7.2 24,6.6 Q37.6,7.2 36.6,21.6 Q36.8,26.4 35,27.6 L13,27.6 Q11.2,26.4 11.4,21.6 Z" fill="none" stroke="#3C2819" stroke-width="1.1" stroke-linejoin="round" stroke-linecap="round"/><ellipse cx="11.8" cy="22.8" rx="1.5" ry="2.1" fill="#F6D3B3" stroke="#3C2819" stroke-width="1.1" stroke-linejoin="round" stroke-linecap="round"/><ellipse cx="36.2" cy="22.8" rx="1.5" ry="2.1" fill="#F6D3B3" stroke="#3C2819" stroke-width="1.1" stroke-linejoin="round" stroke-linecap="round"/><path d="M12.4,21.6 C12.4,27 20,32.4 24,33.6 C28,32.4 35.6,27 35.6,21.6 a11.6,10.4 0 1,0 -23.2,0 Z" fill="#F6D3B3" stroke="#3C2819" stroke-width="1.1" stroke-linejoin="round" stroke-linecap="round"/><clipPath id="v4frontassistendre0f"><path d="M12.4,21.6 C12.4,27 20,32.4 24,33.6 C28,32.4 35.6,27 35.6,21.6 a11.6,10.4 0 1,0 -23.2,0 Z"/></clipPath><g clip-path="url(#v4frontassistendre0f)"><path d="M12,19.4 Q11.6,9.6 24,9.2 Q36.4,9.6 36.2,18.6 Q33.4,13.8 28.4,13.4 Q25.4,15.6 21.6,15.2 Q17.4,15 14.6,17.4 Q12.8,18.6 12,19.4 Z" fill="#F1B985" transform="translate(0 1.4)"/><ellipse cx="16.6" cy="26.2" rx="1.9" ry="1.1" fill="#F29E9A" stroke="none"/><ellipse cx="31.4" cy="26.2" rx="1.9" ry="1.1" fill="#F29E9A" stroke="none"/></g><path d="M12.4,21.6 C12.4,27 20,32.4 24,33.6 C28,32.4 35.6,27 35.6,21.6 a11.6,10.4 0 1,0 -23.2,0 Z" fill="none" stroke="#3C2819" stroke-width="1.1" stroke-linejoin="round" stroke-linecap="round"/><path d="M12,19.4 Q11.6,9.6 24,9.2 Q36.4,9.6 36.2,18.6 Q33.4,13.8 28.4,13.4 Q25.4,15.6 21.6,15.2 Q17.4,15 14.6,17.4 Q12.8,18.6 12,19.4 Z" fill="url(#v4frontassistendre0hg)" stroke="#3C2819" stroke-width="1.1" stroke-linejoin="round" stroke-linecap="round"/><clipPath id="v4frontassistendre0sf"><path d="M12,19.4 Q11.6,9.6 24,9.2 Q36.4,9.6 36.2,18.6 Q33.4,13.8 28.4,13.4 Q25.4,15.6 21.6,15.2 Q17.4,15 14.6,17.4 Q12.8,18.6 12,19.4 Z"/></clipPath><g clip-path="url(#v4frontassistendre0sf)"><path d="M24.6,9.8 Q19.4,11.4 16,16.6 M26.4,9.8 Q23,12.4 21.8,15 M28.2,10 Q32,11.6 34.4,16" fill="none" stroke="#3C2819" stroke-width="0.5" stroke-linejoin="round" stroke-linecap="round"/></g><line x1="17" y1="11.2" x2="24" y2="9.6" stroke="#E5B68F" stroke-width="1.3" stroke-linecap="round"/><path d="M12.8,18 Q5.6,19.2 6.4,28.8 Q8.6,26.6 10.2,27.6 Q9.8,23.2 13,21.2 Z" fill="url(#v4frontassistendre0hg)" stroke="#3C2819" stroke-width="1.1" stroke-linejoin="round" stroke-linecap="round"/><path d="M35.2,18 Q42.4,19.2 41.6,28.8 Q39.4,26.6 37.8,27.6 Q38.2,23.2 35,21.2 Z" fill="url(#v4frontassistendre0hg)" stroke="#3C2819" stroke-width="1.1" stroke-linejoin="round" stroke-linecap="round"/><path d="M8.6,22.4 Q8,25.4 8.4,27.6" fill="none" stroke="#3C2819" stroke-width="0.5" stroke-linejoin="round" stroke-linecap="round"/><ellipse cx="12.2" cy="19.6" rx="1.5" ry="1.3" fill="#C8463A" stroke="#3C2819" stroke-width="0.8" stroke-linejoin="round" stroke-linecap="round"/><ellipse cx="35.8" cy="19.6" rx="1.5" ry="1.3" fill="#C8463A" stroke="#3C2819" stroke-width="0.8" stroke-linejoin="round" stroke-linecap="round"/><path d="M17.09,18.06 Q19.4,17.31 21.71,17.96" fill="none" stroke="#894F20" stroke-width="1" stroke-linecap="round"/><path d="M30.91,18.06 Q28.6,17.31 26.29,17.96" fill="none" stroke="#894F20" stroke-width="1" stroke-linecap="round"/><ellipse cx="19.4" cy="22.6" rx="1.86" ry="2.75" fill="#4F9A92" stroke="none"/><ellipse cx="19.95" cy="21.6" rx="0.62" ry="0.62" fill="#FFFFFF" stroke="none"/><ellipse cx="18.9" cy="23.6" rx="0.3" ry="0.3" fill="#FFFFFF" stroke="none"/><ellipse cx="28.6" cy="22.6" rx="1.86" ry="2.75" fill="#4F9A92" stroke="none"/><ellipse cx="29.15" cy="21.6" rx="0.62" ry="0.62" fill="#FFFFFF" stroke="none"/><ellipse cx="28.1" cy="23.6" rx="0.3" ry="0.3" fill="#FFFFFF" stroke="none"/><path d="M22.3,27 Q24,28.6 25.7,27" fill="none" stroke="#3C2819" stroke-width="0.9" stroke-linejoin="round" stroke-linecap="round"/><path d="M18.53,20.17 Q17.97,19.43 17.37,19.71" fill="none" stroke="#3C2819" stroke-width="0.6" stroke-linejoin="round" stroke-linecap="round"/><path d="M17.93,20.91 Q17.26,20.55 16.69,20.95" fill="none" stroke="#3C2819" stroke-width="0.6" stroke-linejoin="round" stroke-linecap="round"/><path d="M17.61,21.84 Q16.93,21.86 16.47,22.35" fill="none" stroke="#3C2819" stroke-width="0.6" stroke-linejoin="round" stroke-linecap="round"/><path d="M29.47,20.17 Q30.03,19.43 30.63,19.71" fill="none" stroke="#3C2819" stroke-width="0.6" stroke-linejoin="round" stroke-linecap="round"/><path d="M30.07,20.91 Q30.74,20.55 31.31,20.95" fill="none" stroke="#3C2819" stroke-width="0.6" stroke-linejoin="round" stroke-linecap="round"/><path d="M30.39,21.84 Q31.07,21.86 31.53,22.35" fill="none" stroke="#3C2819" stroke-width="0.6" stroke-linejoin="round" stroke-linecap="round"/><circle cx="19.4" cy="22.8" r="3.1" fill="rgba(200,230,255,.25)" stroke="#C77A4A" stroke-width="0.9"/><circle cx="28.6" cy="22.8" r="3.1" fill="rgba(200,230,255,.25)" stroke="#C77A4A" stroke-width="0.9"/><path d="M22.5,22.4 Q24,21.4 25.5,22.4" fill="none" stroke="#C77A4A" stroke-width="0.8" stroke-linejoin="round" stroke-linecap="round"/><path d="M16.3,22.2 L12.2,21.6 M31.7,22.2 L35.8,21.6" fill="none" stroke="#C77A4A" stroke-width="0.8" stroke-linejoin="round" stroke-linecap="round"/><g transform="translate(0 1.3)"><path d="M12.6,12.8 Q24,10.8 35.8,12.8 L35.6,14.4 Q24,12.4 12.8,14.4 Z" fill="#E15A75" stroke="#3C2819" stroke-width="0.8" stroke-linejoin="round" stroke-linecap="round"/><path d="M11.6,13 Q9.8,5.4 22.4,4.2 Q36.4,3.4 38.8,9 Q39.8,12.4 36.2,13 Q24,10.6 11.6,13 Z" fill="#F4C2CC" stroke="#3C2819" stroke-width="1.1" stroke-linejoin="round" stroke-linecap="round"/><clipPath id="v4frontassistendre0brfront"><path d="M11.6,13 Q9.8,5.4 22.4,4.2 Q36.4,3.4 38.8,9 Q39.8,12.4 36.2,13 Q24,10.6 11.6,13 Z"/></clipPath><g clip-path="url(#v4frontassistendre0brfront)"><path d="M8,10.4 Q24,7.8 42,10 L42,16 L8,16 Z" fill="#E15A75"/><ellipse cx="20" cy="6.4" rx="6" ry="1.8" fill="#F8D7DE" opacity=".55"/></g><path d="M11.6,13 Q9.8,5.4 22.4,4.2 Q36.4,3.4 38.8,9 Q39.8,12.4 36.2,13 Q24,10.6 11.6,13 Z" fill="none" stroke="#3C2819" stroke-width="1.1" stroke-linejoin="round" stroke-linecap="round"/><path d="M24.2,4.6 Q24.4,3.2 25.8,3" fill="none" stroke="#E15A75" stroke-width="1.2" stroke-linejoin="round" stroke-linecap="round"/></g></g></svg>
