<svg xmlns="http://www.w3.org/2000/svg" width="48" height="64" viewBox="0 0 48 64"><g transform="translate(0 0)"><ellipse cx="38.5" cy="61" rx="5" ry="1.4" fill="rgba(40,55,20,.22)" stroke="none"/><path d="M33.9,61.4 Q35.1,58.4 38.5,58.6 Q42.1,58.6 43.1,61.4 Z" fill="#7A5434" stroke="#3C2819" stroke-width="0.8" stroke-linejoin="round" stroke-linecap="round"/><ellipse cx="36.3" cy="59.6" rx="1.1" ry="0.7" fill="#9A7048" stroke="none"/><ellipse cx="40.5" cy="60" rx="0.9" ry="0.6" fill="#5E3F26" stroke="none"/><ellipse cx="44.1" cy="60.8" rx="0.9" ry="0.7" fill="#7A5434" stroke="#3C2819" stroke-width="0.5" stroke-linejoin="round" stroke-linecap="round"/><rect x="24.55" y="47.7" width="5" height="10" rx="1.6" fill="#C8466E" stroke="#3C2819" stroke-width="1.1" stroke-linejoin="round" stroke-linecap="round"/><rect x="27.95" y="48.300000000000004" width="1.1" height="8.4" rx="0.5" fill="#A23053"/><path d="M24.05,56.5 L30.05,56.5 L30.35,60.1 Q26.65,61.9 23.75,60.3 Z" fill="#C8463A" stroke="#3C2819" stroke-width="1.1" stroke-linejoin="round" stroke-linecap="round"/><clipPath id="v1befrontaction1s271565"><path d="M24.05,56.5 L30.05,56.5 L30.35,60.1 Q26.65,61.9 23.75,60.3 Z"/></clipPath><g clip-path="url(#v1befrontaction1s271565)"><path d="M23.65,59.8 Q26.65,61.5 30.45,59.6 L30.45,62.1 L23.65,62.1 Z" fill="#913129"/></g><path d="M24.05,56.5 L30.05,56.5 L30.35,60.1 Q26.65,61.9 23.75,60.3 Z" fill="none" stroke="#3C2819" stroke-width="1.1" stroke-linejoin="round" stroke-linecap="round"/><ellipse cx="26.05" cy="58.1" rx="0.9" ry="0.5" fill="#D6746B" stroke="none"/><rect x="18.45" y="47.7" width="5" height="10" rx="1.6" fill="#C8466E" stroke="#3C2819" stroke-width="1.1" stroke-linejoin="round" stroke-linecap="round"/><rect x="21.85" y="48.300000000000004" width="1.1" height="8.4" rx="0.5" fill="#A23053"/><path d="M17.95,56.5 L23.95,56.5 L24.25,60.1 Q20.55,61.9 17.65,60.3 Z" fill="#C8463A" stroke="#3C2819" stroke-width="1.1" stroke-linejoin="round" stroke-linecap="round"/><clipPath id="v1befrontaction1s210565"><path d="M17.95,56.5 L23.95,56.5 L24.25,60.1 Q20.55,61.9 17.65,60.3 Z"/></clipPath><g clip-path="url(#v1befrontaction1s210565)"><path d="M17.55,59.8 Q20.55,61.5 24.35,59.6 L24.35,62.1 L17.55,62.1 Z" fill="#913129"/></g><path d="M17.95,56.5 L23.95,56.5 L24.25,60.1 Q20.55,61.9 17.65,60.3 Z" fill="none" stroke="#3C2819" stroke-width="1.1" stroke-linejoin="round" stroke-linecap="round"/><ellipse cx="19.95" cy="58.1" rx="0.9" ry="0.5" fill="#D6746B" stroke="none"/><g transform="translate(0 3.2)"><path d="M16.4,32.6 Q24,30 31.6,32.6 Q32.4,39.6 33.2,46.6 Q24,49.6 14.8,46.6 Q15.6,39.6 16.4,32.6 Z" fill="#4A4E5C" stroke="#3C2819" stroke-width="1.1" stroke-linejoin="round" stroke-linecap="round"/><clipPath id="v1befrontaction1t"><path d="M16.4,32.6 Q24,30 31.6,32.6 Q32.4,39.6 33.2,46.6 Q24,49.6 14.8,46.6 Q15.6,39.6 16.4,32.6 Z"/></clipPath><g clip-path="url(#v1befrontaction1t)"><rect x="27.2" y="30" width="14" height="22" fill="#3D404B"/><path d="M8,46 Q24,49 40,46 L40,52 L8,52 Z" fill="#3D404B"/><rect x="16.5" y="34" width="1.3" height="10" rx="0.6" fill="#767C91"/><path d="M20.6,31.6 L27.4,31.6 L27,49 L21,49 Z" fill="#F4EEDF"/><line x1="20.7" y1="32" x2="21.1" y2="48.8" stroke="#3C2819" stroke-width="0.8" stroke-linecap="round"/><line x1="27.3" y1="32" x2="26.9" y2="48.8" stroke="#3C2819" stroke-width="0.8" stroke-linecap="round"/></g><path d="M16.4,32.6 Q24,30 31.6,32.6 Q32.4,39.6 33.2,46.6 Q24,49.6 14.8,46.6 Q15.6,39.6 16.4,32.6 Z" fill="none" stroke="#3C2819" stroke-width="1.1" stroke-linejoin="round" stroke-linecap="round"/><path d="M20.6,31.6 L22.8,36.4 L19.4,34 Z" fill="#3D404B" stroke="#3C2819" stroke-width="0.8" stroke-linejoin="round" stroke-linecap="round"/><path d="M27.4,31.6 L25.2,36.4 L28.6,34 Z" fill="#3D404B" stroke="#3C2819" stroke-width="0.8" stroke-linejoin="round" stroke-linecap="round"/></g><g transform="translate(0 3.2)"><ellipse cx="17.6" cy="31.6" rx="0.78" ry="0.78" fill="#F4E2BA" stroke="#3C2819" stroke-width="0.45" stroke-linejoin="round" stroke-linecap="round"/><ellipse cx="17.35" cy="31.35" rx="0.22" ry="0.22" fill="#FFFFFF" stroke="none"/><ellipse cx="19.2" cy="33.09" rx="0.78" ry="0.78" fill="#F4E2BA" stroke="#3C2819" stroke-width="0.45" stroke-linejoin="round" stroke-linecap="round"/><ellipse cx="18.95" cy="32.84" rx="0.22" ry="0.22" fill="#FFFFFF" stroke="none"/><ellipse cx="20.8" cy="34.15" rx="0.78" ry="0.78" fill="#F4E2BA" stroke="#3C2819" stroke-width="0.45" stroke-linejoin="round" stroke-linecap="round"/><ellipse cx="20.55" cy="33.9" rx="0.22" ry="0.22" fill="#FFFFFF" stroke="none"/><ellipse cx="22.4" cy="34.79" rx="0.78" ry="0.78" fill="#F4E2BA" stroke="#3C2819" stroke-width="0.45" stroke-linejoin="round" stroke-linecap="round"/><ellipse cx="22.15" cy="34.54" rx="0.22" ry="0.22" fill="#FFFFFF" stroke="none"/><ellipse cx="24" cy="35" rx="0.78" ry="0.78" fill="#F4E2BA" stroke="#3C2819" stroke-width="0.45" stroke-linejoin="round" stroke-linecap="round"/><ellipse cx="23.75" cy="34.75" rx="0.22" ry="0.22" fill="#FFFFFF" stroke="none"/><ellipse cx="25.6" cy="34.79" rx="0.78" ry="0.78" fill="#F4E2BA" stroke="#3C2819" stroke-width="0.45" stroke-linejoin="round" stroke-linecap="round"/><ellipse cx="25.35" cy="34.54" rx="0.22" ry="0.22" fill="#FFFFFF" stroke="none"/><ellipse cx="27.2" cy="34.15" rx="0.78" ry="0.78" fill="#F4E2BA" stroke="#3C2819" stroke-width="0.45" stroke-linejoin="round" stroke-linecap="round"/><ellipse cx="26.95" cy="33.9" rx="0.22" ry="0.22" fill="#FFFFFF" stroke="none"/><ellipse cx="28.8" cy="33.09" rx="0.78" ry="0.78" fill="#F4E2BA" stroke="#3C2819" stroke-width="0.45" stroke-linejoin="round" stroke-linecap="round"/><ellipse cx="28.55" cy="32.84" rx="0.22" ry="0.22" fill="#FFFFFF" stroke="none"/><ellipse cx="30.4" cy="31.6" rx="0.78" ry="0.78" fill="#F4E2BA" stroke="#3C2819" stroke-width="0.45" stroke-linejoin="round" stroke-linecap="round"/><ellipse cx="30.15" cy="31.35" rx="0.22" ry="0.22" fill="#FFFFFF" stroke="none"/></g><path d="M16.9,37.2 L19.3,44.8 L36.78,48.44" fill="none" stroke="#3C2819" stroke-width="5.6" stroke-linecap="round" stroke-linejoin="round"/><path d="M16.9,37.2 L19.3,44.8 L36.78,48.44" fill="none" stroke="#4A4E5C" stroke-width="3.4" stroke-linecap="round" stroke-linejoin="round"/><line x1="34.33" y1="47.93" x2="35.9" y2="48.26" stroke="#3C2819" stroke-width="5.6" stroke-linecap="round"/><line x1="34.33" y1="47.93" x2="35.9" y2="48.26" stroke="#3D404B" stroke-width="3.4" stroke-linecap="round"/><ellipse cx="36.78" cy="48.44" rx="2.1" ry="2.1" fill="#FCE8D8" stroke="#3C2819" stroke-width="1.1" stroke-linejoin="round" stroke-linecap="round"/><line x1="35.06" y1="41.82" x2="31.14" y2="44.58" stroke="#3C2819" stroke-width="3" stroke-linecap="round"/><line x1="35.06" y1="41.82" x2="31.14" y2="44.58" stroke="#B07A45" stroke-width="1.3" stroke-linecap="round"/><line x1="33.1" y1="43.2" x2="37.08" y2="48.87" stroke="#3C2819" stroke-width="3.2" stroke-linecap="round"/><line x1="33.1" y1="43.2" x2="37.08" y2="48.87" stroke="#B07A45" stroke-width="1.5" stroke-linecap="round"/><line x1="33.1" y1="43.2" x2="37.1" y2="48.9" stroke="#C99A62" stroke-width="0.5" stroke-linecap="round"/><path d="M39.37,47.26 L34.79,50.48 L38.51,55.44 L40.12,55.29 L42.08,53.91 L42.77,52.45 Z" fill="#A9B1BB" stroke="#3C2819" stroke-width="1" stroke-linejoin="round" stroke-linecap="round"/><line x1="38.96" y1="48.77" x2="41.61" y2="52.53" stroke="#E2E8EE" stroke-width="0.7" stroke-linecap="round"/><ellipse cx="39.13" cy="49.73" rx="3" ry="1.9" fill="#7A5434" stroke="#3C2819" stroke-width="0.8" stroke-linejoin="round" stroke-linecap="round"/><ellipse cx="38" cy="49.13" rx="1" ry="0.6" fill="#9A7048" stroke="none"/><path d="M31.1,37.2 L33.5,40.6 L33.1,43.8" fill="none" stroke="#3C2819" stroke-width="5.6" stroke-linecap="round" stroke-linejoin="round"/><path d="M31.1,37.2 L33.5,40.6 L33.1,43.8" fill="none" stroke="#4A4E5C" stroke-width="3.4" stroke-linecap="round" stroke-linejoin="round"/><line x1="33.41" y1="41.32" x2="33.21" y2="42.91" stroke="#3C2819" stroke-width="5.6" stroke-linecap="round"/><line x1="33.41" y1="41.32" x2="33.21" y2="42.91" stroke="#3D404B" stroke-width="3.4" stroke-linecap="round"/><ellipse cx="33.1" cy="43.8" rx="2.1" ry="2.1" fill="#FCE8D8" stroke="#3C2819" stroke-width="1.1" stroke-linejoin="round" stroke-linecap="round"/><g transform="translate(0 3.2)"><path d="M11.4,21.6 Q10.4,7.2 24,6.6 Q37.6,7.2 36.6,21.6 Q36.8,26.4 35,27.6 L13,27.6 Q11.2,26.4 11.4,21.6 Z" fill="#D9D4CC" stroke="#3C2819" stroke-width="1.1" stroke-linejoin="round" stroke-linecap="round"/><clipPath id="v1befrontaction1h"><path d="M11.4,21.6 Q10.4,7.2 24,6.6 Q37.6,7.2 36.6,21.6 Q36.8,26.4 35,27.6 L13,27.6 Q11.2,26.4 11.4,21.6 Z"/></clipPath><g clip-path="url(#v1befrontaction1h)"><rect x="8" y="24.6" width="32" height="10" fill="#AA9F8D"/></g><path d="M11.4,21.6 Q10.4,7.2 24,6.6 Q37.6,7.2 36.6,21.6 Q36.8,26.4 35,27.6 L13,27.6 Q11.2,26.4 11.4,21.6 Z" fill="none" stroke="#3C2819" stroke-width="1.1" stroke-linejoin="round" stroke-linecap="round"/><ellipse cx="11.8" cy="22.8" rx="1.5" ry="2.1" fill="#FCE8D8" stroke="#3C2819" stroke-width="1.1" stroke-linejoin="round" stroke-linecap="round"/><ellipse cx="36.2" cy="22.8" rx="1.5" ry="2.1" fill="#FCE8D8" stroke="#3C2819" stroke-width="1.1" stroke-linejoin="round" stroke-linecap="round"/><path d="M12.4,21.6 C12.4,28.4 19.2,33.4 24,33.4 C28.8,33.4 35.6,28.4 35.6,21.6 a11.6,10.4 0 1,0 -23.2,0 Z" fill="#FCE8D8" stroke="#3C2819" stroke-width="1.1" stroke-linejoin="round" stroke-linecap="round"/><clipPath id="v1befrontaction1f"><path d="M12.4,21.6 C12.4,28.4 19.2,33.4 24,33.4 C28.8,33.4 35.6,28.4 35.6,21.6 a11.6,10.4 0 1,0 -23.2,0 Z"/></clipPath><g clip-path="url(#v1befrontaction1f)"><path d="M12,19.4 Q11.6,9.6 24,9.2 Q36.4,9.6 36.2,18.6 Q33.4,13.8 28.4,13.4 Q25.4,15.6 21.6,15.2 Q17.4,15 14.6,17.4 Q12.8,18.6 12,19.4 Z" fill="#F8C9A4" transform="translate(0 1.4)"/><ellipse cx="16.6" cy="26.2" rx="1.9" ry="1.1" fill="#F4AFAC" stroke="none"/><ellipse cx="31.4" cy="26.2" rx="1.9" ry="1.1" fill="#F4AFAC" stroke="none"/></g><path d="M12.4,21.6 C12.4,28.4 19.2,33.4 24,33.4 C28.8,33.4 35.6,28.4 35.6,21.6 a11.6,10.4 0 1,0 -23.2,0 Z" fill="none" stroke="#3C2819" stroke-width="1.1" stroke-linejoin="round" stroke-linecap="round"/><path d="M12,19.4 Q11.6,9.6 24,9.2 Q36.4,9.6 36.2,18.6 Q33.4,13.8 28.4,13.4 Q25.4,15.6 21.6,15.2 Q17.4,15 14.6,17.4 Q12.8,18.6 12,19.4 Z" fill="#D9D4CC" stroke="#3C2819" stroke-width="1.1" stroke-linejoin="round" stroke-linecap="round"/><clipPath id="v1befrontaction1sf"><path d="M12,19.4 Q11.6,9.6 24,9.2 Q36.4,9.6 36.2,18.6 Q33.4,13.8 28.4,13.4 Q25.4,15.6 21.6,15.2 Q17.4,15 14.6,17.4 Q12.8,18.6 12,19.4 Z"/></clipPath><g clip-path="url(#v1befrontaction1sf)"><path d="M24.6,9.8 Q19.4,11.4 16,16.6 M26.4,9.8 Q23,12.4 21.8,15 M28.2,10 Q32,11.6 34.4,16" fill="none" stroke="#3C2819" stroke-width="0.5" stroke-linejoin="round" stroke-linecap="round"/></g><line x1="17" y1="11.2" x2="24" y2="9.6" stroke="#E5E2DC" stroke-width="1.3" stroke-linecap="round"/><clipPath id="v1befrontaction1mcfront"><path d="M12,19.4 Q11.6,9.6 24,9.2 Q36.4,9.6 36.2,18.6 Q33.4,13.8 28.4,13.4 Q25.4,15.6 21.6,15.2 Q17.4,15 14.6,17.4 Q12.8,18.6 12,19.4 Z"/></clipPath><g clip-path="url(#v1befrontaction1mcfront)"><path d="M24.6,9.8 Q19.4,11.4 16,16.6 M26.4,9.8 Q23,12.4 21.8,15 M28.2,10 Q32,11.6 34.4,16" fill="none" stroke="#5D8267" stroke-width="1.3" stroke-linecap="round"/></g><path d="M12.8,18 Q5.6,19.2 6.4,28.8 Q8.6,26.6 10.2,27.6 Q9.8,23.2 13,21.2 Z" fill="#D9D4CC" stroke="#3C2819" stroke-width="1.1" stroke-linejoin="round" stroke-linecap="round"/><path d="M35.2,18 Q42.4,19.2 41.6,28.8 Q39.4,26.6 37.8,27.6 Q38.2,23.2 35,21.2 Z" fill="#D9D4CC" stroke="#3C2819" stroke-width="1.1" stroke-linejoin="round" stroke-linecap="round"/><path d="M8.6,22.4 Q8,25.4 8.4,27.6" fill="none" stroke="#3C2819" stroke-width="0.5" stroke-linejoin="round" stroke-linecap="round"/><ellipse cx="12.2" cy="19.6" rx="1.5" ry="1.3" fill="#C8463A" stroke="#3C2819" stroke-width="0.8" stroke-linejoin="round" stroke-linecap="round"/><ellipse cx="35.8" cy="19.6" rx="1.5" ry="1.3" fill="#C8463A" stroke="#3C2819" stroke-width="0.8" stroke-linejoin="round" stroke-linecap="round"/><path d="M17.35,18.1 Q19.4,17.2 21.45,17.9" fill="none" stroke="#857863" stroke-width="1" stroke-linecap="round"/><path d="M30.65,18.1 Q28.6,17.2 26.55,17.9" fill="none" stroke="#857863" stroke-width="1" stroke-linecap="round"/><path d="M17.6,23.6 Q19.4,21.4 21.2,23.6" fill="none" stroke="#3C2819" stroke-width="1.1" stroke-linejoin="round" stroke-linecap="round"/><path d="M26.8,23.6 Q28.6,21.4 30.4,23.6" fill="none" stroke="#3C2819" stroke-width="1.1" stroke-linejoin="round" stroke-linecap="round"/><path d="M21.9,26.8 Q24,30.05 26.1,26.8 Z" fill="#7A3B30" stroke="#3C2819" stroke-width="0.9" stroke-linejoin="round" stroke-linecap="round"/><clipPath id="v1befrontaction1m"><path d="M21.9,26.8 Q24,30.05 26.1,26.8 Z"/></clipPath><g clip-path="url(#v1befrontaction1m)"><ellipse cx="24" cy="28.28" rx="1.16" ry="0.9" fill="#E07A72" stroke="none"/></g><ellipse cx="24" cy="13.6" rx="16.4" ry="3.4" fill="#F2D27E" stroke="#3C2819" stroke-width="1.1" stroke-linejoin="round" stroke-linecap="round"/><path d="M15.6,13.4 Q15.8,5.2 24,5 Q32.2,5.2 32.4,13.4 Z" fill="#E8C46A" stroke="#3C2819" stroke-width="1.1" stroke-linejoin="round" stroke-linecap="round"/><rect x="15.6" y="10.6" width="16.8" height="2.2" fill="#7EC4A0"/><path d="M15.6,13.4 Q15.8,5.2 24,5 Q32.2,5.2 32.4,13.4 Z" fill="none" stroke="#3C2819" stroke-width="1.1" stroke-linejoin="round" stroke-linecap="round"/><line x1="17.2" y1="8" x2="21" y2="6.4" stroke="#FFF0B8" stroke-width="0.9" stroke-linecap="round"/></g></g></svg>
