<svg xmlns="http://www.w3.org/2000/svg" width="190" height="210" viewBox="-95 -155 190 210"><g transform="scale(1.25)"><ellipse cx="1.6" cy="3.04" rx="46.16" ry="23.08" fill="rgba(40,55,20,0.16)"/><ellipse cx="-0.96" cy="1.12" rx="41.63" ry="20.82" fill="rgba(150,120,80,.22)"/><ellipse cx="-1.28" cy="-1.28" rx="29.87" ry="14.93" fill="rgba(196,164,112,.22)"/><ellipse cx="9.92" cy="6.56" rx="1.1" ry="0.5" fill="rgba(230,215,180,.45)"/><ellipse cx="-32.79" cy="0.42" rx="0.7" ry="0.36" fill="rgba(110,80,50,.4)"/><ellipse cx="16.24" cy="-6.09" rx="0.7" ry="0.36" fill="rgba(230,215,180,.45)"/><ellipse cx="-6.06" cy="20.41" rx="1.1" ry="0.5" fill="rgba(110,80,50,.4)"/><ellipse cx="-17.87" cy="-10.97" rx="0.7" ry="0.36" fill="rgba(230,215,180,.45)"/><ellipse cx="18.65" cy="3.3" rx="0.7" ry="0.36" fill="rgba(110,80,50,.4)"/><ellipse cx="-32.64" cy="10.25" rx="1.1" ry="0.5" fill="rgba(230,215,180,.45)"/><ellipse cx="7.23" cy="-11.82" rx="0.7" ry="0.36" fill="rgba(110,80,50,.4)"/><ellipse cx="6.52" cy="9.16" rx="0.7" ry="0.36" fill="rgba(230,215,180,.45)"/><ellipse cx="-32.55" cy="-5.45" rx="1.1" ry="0.5" fill="rgba(110,80,50,.4)"/><ellipse cx="22.36" cy="-3.11" rx="0.7" ry="0.36" fill="rgba(230,215,180,.45)"/><ellipse cx="-8.08" cy="7.94" rx="0.7" ry="0.36" fill="rgba(110,80,50,.4)"/><ellipse cx="-9.16" cy="-14.27" rx="1.1" ry="0.5" fill="rgba(230,215,180,.45)"/><ellipse cx="17.95" cy="7.17" rx="0.7" ry="0.36" fill="rgba(110,80,50,.4)"/><ellipse cx="-39.3" cy="4.46" rx="0.7" ry="0.36" fill="rgba(230,215,180,.45)"/><ellipse cx="17.05" cy="-10.57" rx="1.1" ry="0.5" fill="rgba(110,80,50,.4)"/><ellipse cx="0.75" cy="11.13" rx="0.7" ry="0.36" fill="rgba(230,215,180,.45)"/><ellipse cx="-27.86" cy="-11.26" rx="0.7" ry="0.36" fill="rgba(110,80,50,.4)"/><ellipse cx="26.19" cy="1.15" rx="1.1" ry="0.5" fill="rgba(230,215,180,.45)"/><ellipse cx="-14.07" cy="7.1" rx="0.7" ry="0.36" fill="rgba(110,80,50,.4)"/><ellipse cx="2.11" cy="-15.92" rx="0.7" ry="0.36" fill="rgba(230,215,180,.45)"/><ellipse cx="14.08" cy="10.98" rx="1.1" ry="0.5" fill="rgba(110,80,50,.4)"/><ellipse cx="-33.1" cy="-6.77" rx="1.5" ry="0.9299999999999999" fill="#9B927F"/><ellipse cx="-33.28" cy="-7.04" rx="1.5" ry="0.99" fill="#C3BBA9"/><ellipse cx="-33.7" cy="-7.37" rx="0.75" ry="0.44999999999999996" fill="#E6E1D4"/><ellipse cx="2.064000000000002" cy="20.376" rx="1.2" ry="0.744" fill="#9B927F"/><ellipse cx="1.9200000000000017" cy="20.16" rx="1.2" ry="0.792" fill="#C3BBA9"/><ellipse cx="1.5840000000000016" cy="19.896" rx="0.6" ry="0.36" fill="#E6E1D4"/><ellipse cx="-22.4" cy="-14.74" rx="3" ry="1.1" fill="rgba(60,80,30,.25)"/><path d="M-23.6,-15.04 Q-24.32,-17.68 -25.28,-19.44" fill="none" stroke="#4F8F3A" stroke-width="1.1" stroke-linecap="round"/><path d="M-21.3,-15.04 Q-20.64,-17.44 -19.76,-19.04" fill="none" stroke="#4F8F3A" stroke-width="1.1" stroke-linecap="round"/><path d="M-22.4,-15.04 Q-22.4,-18.28 -22.4,-20.44" fill="none" stroke="#7EC45B" stroke-width="1.1" stroke-linecap="round"/><path d="M-22.9,-15.04 Q-23.2,-17.08 -23.6,-18.44" fill="none" stroke="#7EC45B" stroke-width="1.1" stroke-linecap="round"/><ellipse cx="26.88" cy="14.38" rx="2.7" ry="0.99" fill="rgba(60,80,30,.25)"/><path d="M25.8,14.08 Q25.15,11.7 24.29,10.12" fill="none" stroke="#4F8F3A" stroke-width="0.99" stroke-linecap="round"/><path d="M27.87,14.08 Q28.46,11.92 29.26,10.48" fill="none" stroke="#4F8F3A" stroke-width="0.99" stroke-linecap="round"/><path d="M26.88,14.08 Q26.88,11.16 26.88,9.22" fill="none" stroke="#7EC45B" stroke-width="0.99" stroke-linecap="round"/><path d="M26.43,14.08 Q26.16,12.24 25.8,11.02" fill="none" stroke="#7EC45B" stroke-width="0.99" stroke-linecap="round"/><ellipse cx="-37.12" cy="9.26" rx="2.4" ry="0.88" fill="rgba(60,80,30,.25)"/><path d="M-38.08,8.96 Q-38.66,6.85 -39.42,5.44" fill="none" stroke="#4F8F3A" stroke-width="0.88" stroke-linecap="round"/><path d="M-36.24,8.96 Q-35.71,7.04 -35.01,5.76" fill="none" stroke="#4F8F3A" stroke-width="0.88" stroke-linecap="round"/><path d="M-37.12,8.96 Q-37.12,6.37 -37.12,4.64" fill="none" stroke="#7EC45B" stroke-width="0.88" stroke-linecap="round"/><path d="M-37.52,8.96 Q-37.76,7.33 -38.08,6.24" fill="none" stroke="#7EC45B" stroke-width="0.88" stroke-linecap="round"/><ellipse cx="-17.92" cy="20.14" rx="3" ry="1.1" fill="rgba(60,80,30,.25)"/><path d="M-19.12,19.84 Q-19.84,17.2 -20.8,15.44" fill="none" stroke="#4F8F3A" stroke-width="1.1" stroke-linecap="round"/><path d="M-16.82,19.84 Q-16.16,17.44 -15.28,15.84" fill="none" stroke="#4F8F3A" stroke-width="1.1" stroke-linecap="round"/><path d="M-17.92,19.84 Q-17.92,16.6 -17.92,14.44" fill="none" stroke="#7EC45B" stroke-width="1.1" stroke-linecap="round"/><path d="M-18.42,19.84 Q-18.72,17.8 -19.12,16.44" fill="none" stroke="#7EC45B" stroke-width="1.1" stroke-linecap="round"/><polygon points="-14.08,-12.8 8.96,-1.28 8.96,-19.28 -14.08,-30.8" fill="#B07A45" stroke="#3C2819" stroke-width="0.72" stroke-linejoin="round"/><polygon points="25.6,-9.6 8.96,-1.28 8.96,-19.28 25.6,-27.6" fill="#8A5A32" stroke="#3C2819" stroke-width="0.72" stroke-linejoin="round"/><polygon points="2.56,-39.12 25.6,-27.6 8.96,-19.28 -14.08,-30.8" fill="#C99A62" stroke="#3C2819" stroke-width="0.72" stroke-linejoin="round"/><polyline points="-14.08,-16.400000000000002 8.96,-4.88" stroke="rgba(70,40,20,.25)" stroke-width="0.8"/><polyline points="-14.08,-20 8.96,-8.48" stroke="rgba(70,40,20,.25)" stroke-width="0.8"/><polyline points="-14.08,-23.6 8.96,-12.08" stroke="rgba(70,40,20,.25)" stroke-width="0.8"/><polyline points="-14.08,-27.200000000000003 8.96,-15.68" stroke="rgba(70,40,20,.25)" stroke-width="0.8"/><polyline points="25.599999999999998,-13.2 8.96,-4.88" stroke="rgba(40,20,10,.25)" stroke-width="0.8"/><polyline points="25.599999999999998,-16.8 8.96,-8.48" stroke="rgba(40,20,10,.25)" stroke-width="0.8"/><polyline points="25.599999999999998,-20.4 8.96,-12.08" stroke="rgba(40,20,10,.25)" stroke-width="0.8"/><polyline points="25.599999999999998,-24 8.96,-15.68" stroke="rgba(40,20,10,.25)" stroke-width="0.8"/><polygon points="0,-5.76 5.76,-2.88 5.76,-15.88 0,-18.76" fill="#2E2218" stroke="#3C2819" stroke-width="0.72" stroke-linejoin="round"/><polygon points="2.56,-42.32 32,-27.6 20.48,-34.84 -8.96,-49.56" fill="#C99A45" stroke="#3C2819" stroke-width="0.72" stroke-linejoin="round"/><polygon points="25.6,-27.6 8.96,-19.28 17.28,-36.44" fill="#B07A45" stroke="#3C2819" stroke-width="0.72" stroke-linejoin="round"/><polygon points="-8.96,-49.56 20.48,-34.84 8.96,-16.08 -20.48,-30.8" fill="#EBC46F" stroke="#3C2819" stroke-width="0.72" stroke-linejoin="round"/><polyline points="32,-27.6 20.48,-34.84 8.96,-16.08" fill="none" stroke="#3C2819" stroke-width="1.3" stroke-linejoin="round" stroke-linecap="round"/><polygon points="23.04,-17.32 12.8,-12.2 14.72,-11.24 24.96,-16.36" fill="#E0A96C" stroke="#3C2819" stroke-width="0.72" stroke-linejoin="round"/><rect x="20.6" y="-20.72" width="3.6" height="5" rx="1" fill="#E2C27A" stroke="#3C2819" stroke-width="0.6"/><rect x="21.1" y="-21.92" width="2.6" height="1.4" rx="0.4" fill="#B07E4C" stroke="#3C2819" stroke-width="0.5"/><rect x="17.4" y="-19.12" width="3.6" height="5" rx="1" fill="#7FA65A" stroke="#3C2819" stroke-width="0.6"/><rect x="17.9" y="-20.32" width="2.6" height="1.4" rx="0.4" fill="#B07E4C" stroke="#3C2819" stroke-width="0.5"/><rect x="14.2" y="-17.52" width="3.6" height="5" rx="1" fill="#C9A45A" stroke="#3C2819" stroke-width="0.6"/><rect x="14.7" y="-18.72" width="2.6" height="1.4" rx="0.4" fill="#B07E4C" stroke="#3C2819" stroke-width="0.5"/><polygon points="-32.26,-1.15 -16.9,6.53 -16.9,4.53 -32.26,-3.15" fill="#784C2E" stroke="#3C2819" stroke-width="0.72" stroke-linejoin="round"/><polygon points="-6.14,1.15 -16.9,6.53 -16.9,4.53 -6.14,-0.85" fill="#5E3A22" stroke="#3C2819" stroke-width="0.72" stroke-linejoin="round"/><polygon points="-21.5,-8.53 -6.14,-0.85 -16.9,4.53 -32.26,-3.15" fill="#946240" stroke="#3C2819" stroke-width="0.72" stroke-linejoin="round"/><line x1="-22.27" y1="-6.99" x2="-9.22" y2="-0.46" stroke="rgba(50,30,15,.45)" stroke-width="0.8" stroke-linecap="round"/><line x1="-20.35" y1="-6.03" x2="-20.35" y2="-9.03" stroke="#5F8F3C" stroke-width="0.8" stroke-linecap="round"/><ellipse cx="-21.55" cy="-9.03" rx="1.2" ry="0.7" fill="#7EC45B" stroke="#3C2819" stroke-width="0.35"/><ellipse cx="-19.15" cy="-9.43" rx="1.2" ry="0.7" fill="#7EC45B" stroke="#3C2819" stroke-width="0.35"/><line x1="-15.74" y1="-3.73" x2="-15.74" y2="-6.73" stroke="#5F8F3C" stroke-width="0.8" stroke-linecap="round"/><ellipse cx="-16.94" cy="-6.73" rx="1.2" ry="0.7" fill="#7EC45B" stroke="#3C2819" stroke-width="0.35"/><ellipse cx="-14.54" cy="-7.13" rx="1.2" ry="0.7" fill="#7EC45B" stroke="#3C2819" stroke-width="0.35"/><line x1="-11.14" y1="-1.42" x2="-11.14" y2="-4.42" stroke="#5F8F3C" stroke-width="0.8" stroke-linecap="round"/><ellipse cx="-12.34" cy="-4.42" rx="1.2" ry="0.7" fill="#7EC45B" stroke="#3C2819" stroke-width="0.35"/><ellipse cx="-9.94" cy="-4.82" rx="1.2" ry="0.7" fill="#7EC45B" stroke="#3C2819" stroke-width="0.35"/><line x1="-25.73" y1="-5.26" x2="-12.67" y2="1.26" stroke="rgba(50,30,15,.45)" stroke-width="0.8" stroke-linecap="round"/><line x1="-23.81" y1="-4.3" x2="-23.81" y2="-7.3" stroke="#5F8F3C" stroke-width="0.8" stroke-linecap="round"/><ellipse cx="-25.01" cy="-7.3" rx="1.2" ry="0.7" fill="#7EC45B" stroke="#3C2819" stroke-width="0.35"/><ellipse cx="-22.61" cy="-7.7" rx="1.2" ry="0.7" fill="#7EC45B" stroke="#3C2819" stroke-width="0.35"/><line x1="-19.2" y1="-2" x2="-19.2" y2="-5" stroke="#5F8F3C" stroke-width="0.8" stroke-linecap="round"/><ellipse cx="-20.4" cy="-5" rx="1.2" ry="0.7" fill="#7EC45B" stroke="#3C2819" stroke-width="0.35"/><ellipse cx="-18" cy="-5.4" rx="1.2" ry="0.7" fill="#7EC45B" stroke="#3C2819" stroke-width="0.35"/><line x1="-14.59" y1="0.3" x2="-14.59" y2="-2.7" stroke="#5F8F3C" stroke-width="0.8" stroke-linecap="round"/><ellipse cx="-15.79" cy="-2.7" rx="1.2" ry="0.7" fill="#7EC45B" stroke="#3C2819" stroke-width="0.35"/><ellipse cx="-13.39" cy="-3.1" rx="1.2" ry="0.7" fill="#7EC45B" stroke="#3C2819" stroke-width="0.35"/><line x1="-29.18" y1="-3.54" x2="-16.13" y2="2.99" stroke="rgba(50,30,15,.45)" stroke-width="0.8" stroke-linecap="round"/><line x1="-27.26" y1="-2.58" x2="-27.26" y2="-5.58" stroke="#5F8F3C" stroke-width="0.8" stroke-linecap="round"/><ellipse cx="-28.46" cy="-5.58" rx="1.2" ry="0.7" fill="#7EC45B" stroke="#3C2819" stroke-width="0.35"/><ellipse cx="-26.06" cy="-5.98" rx="1.2" ry="0.7" fill="#7EC45B" stroke="#3C2819" stroke-width="0.35"/><line x1="-22.66" y1="-0.27" x2="-22.66" y2="-3.27" stroke="#5F8F3C" stroke-width="0.8" stroke-linecap="round"/><ellipse cx="-23.86" cy="-3.27" rx="1.2" ry="0.7" fill="#7EC45B" stroke="#3C2819" stroke-width="0.35"/><ellipse cx="-21.46" cy="-3.67" rx="1.2" ry="0.7" fill="#7EC45B" stroke="#3C2819" stroke-width="0.35"/><line x1="-18.05" y1="2.03" x2="-18.05" y2="-0.97" stroke="#5F8F3C" stroke-width="0.8" stroke-linecap="round"/><ellipse cx="-19.25" cy="-0.97" rx="1.2" ry="0.7" fill="#7EC45B" stroke="#3C2819" stroke-width="0.35"/><ellipse cx="-16.85" cy="-1.37" rx="1.2" ry="0.7" fill="#7EC45B" stroke="#3C2819" stroke-width="0.35"/><polygon points="0,6.4 12.8,12.8 12.8,10.8 0,4.4" fill="#784C2E" stroke="#3C2819" stroke-width="0.72" stroke-linejoin="round"/><polygon points="21.76,8.32 12.8,12.8 12.8,10.8 21.76,6.32" fill="#5E3A22" stroke="#3C2819" stroke-width="0.72" stroke-linejoin="round"/><polygon points="8.96,-0.08 21.76,6.32 12.8,10.8 0,4.4" fill="#946240" stroke="#3C2819" stroke-width="0.72" stroke-linejoin="round"/><line x1="8.32" y1="1.2" x2="19.2" y2="6.64" stroke="rgba(50,30,15,.45)" stroke-width="0.8" stroke-linecap="round"/><line x1="9.92" y1="2" x2="9.92" y2="-1" stroke="#5F8F3C" stroke-width="0.8" stroke-linecap="round"/><ellipse cx="8.72" cy="-1" rx="1.2" ry="0.7" fill="#7EC45B" stroke="#3C2819" stroke-width="0.35"/><ellipse cx="11.12" cy="-1.4" rx="1.2" ry="0.7" fill="#7EC45B" stroke="#3C2819" stroke-width="0.35"/><line x1="17.6" y1="5.84" x2="17.6" y2="2.84" stroke="#5F8F3C" stroke-width="0.8" stroke-linecap="round"/><ellipse cx="16.4" cy="2.84" rx="1.2" ry="0.7" fill="#7EC45B" stroke="#3C2819" stroke-width="0.35"/><ellipse cx="18.8" cy="2.44" rx="1.2" ry="0.7" fill="#7EC45B" stroke="#3C2819" stroke-width="0.35"/><line x1="5.44" y1="2.64" x2="16.32" y2="8.08" stroke="rgba(50,30,15,.45)" stroke-width="0.8" stroke-linecap="round"/><line x1="7.04" y1="3.44" x2="7.04" y2="0.44" stroke="#5F8F3C" stroke-width="0.8" stroke-linecap="round"/><ellipse cx="5.84" cy="0.44" rx="1.2" ry="0.7" fill="#7EC45B" stroke="#3C2819" stroke-width="0.35"/><ellipse cx="8.24" cy="0.04" rx="1.2" ry="0.7" fill="#7EC45B" stroke="#3C2819" stroke-width="0.35"/><line x1="14.72" y1="7.28" x2="14.72" y2="4.28" stroke="#5F8F3C" stroke-width="0.8" stroke-linecap="round"/><ellipse cx="13.52" cy="4.28" rx="1.2" ry="0.7" fill="#7EC45B" stroke="#3C2819" stroke-width="0.35"/><ellipse cx="15.92" cy="3.88" rx="1.2" ry="0.7" fill="#7EC45B" stroke="#3C2819" stroke-width="0.35"/><line x1="2.56" y1="4.08" x2="13.44" y2="9.52" stroke="rgba(50,30,15,.45)" stroke-width="0.8" stroke-linecap="round"/><line x1="4.16" y1="4.88" x2="4.16" y2="1.88" stroke="#5F8F3C" stroke-width="0.8" stroke-linecap="round"/><ellipse cx="2.96" cy="1.88" rx="1.2" ry="0.7" fill="#7EC45B" stroke="#3C2819" stroke-width="0.35"/><ellipse cx="5.36" cy="1.48" rx="1.2" ry="0.7" fill="#7EC45B" stroke="#3C2819" stroke-width="0.35"/><line x1="11.84" y1="8.72" x2="11.84" y2="5.72" stroke="#5F8F3C" stroke-width="0.8" stroke-linecap="round"/><ellipse cx="10.64" cy="5.72" rx="1.2" ry="0.7" fill="#7EC45B" stroke="#3C2819" stroke-width="0.35"/><ellipse cx="13.04" cy="5.32" rx="1.2" ry="0.7" fill="#7EC45B" stroke="#3C2819" stroke-width="0.35"/><line x1="28.8" y1="9.28" x2="28.8" y2="-14.72" stroke="#5F8F3C" stroke-width="1.6" stroke-linecap="round"/><ellipse cx="25.8" cy="-0.72" rx="3" ry="1.4" fill="#7EC45B" stroke="#3C2819" stroke-width="0.4"/><ellipse cx="32.8" cy="-16.72" rx="2.2" ry="1.2" fill="#F2C94C" stroke="#3C2819" stroke-width="0.4" transform="rotate(0 32.8 -16.72)"/><ellipse cx="32.04" cy="-14.37" rx="2.2" ry="1.2" fill="#F2C94C" stroke="#3C2819" stroke-width="0.4" transform="rotate(36 32.04 -14.37)"/><ellipse cx="30.04" cy="-12.92" rx="2.2" ry="1.2" fill="#F2C94C" stroke="#3C2819" stroke-width="0.4" transform="rotate(72 30.04 -12.92)"/><ellipse cx="27.56" cy="-12.92" rx="2.2" ry="1.2" fill="#F2C94C" stroke="#3C2819" stroke-width="0.4" transform="rotate(108 27.56 -12.92)"/><ellipse cx="25.56" cy="-14.37" rx="2.2" ry="1.2" fill="#F2C94C" stroke="#3C2819" stroke-width="0.4" transform="rotate(144 25.56 -14.37)"/><ellipse cx="24.8" cy="-16.72" rx="2.2" ry="1.2" fill="#F2C94C" stroke="#3C2819" stroke-width="0.4" transform="rotate(180 24.8 -16.72)"/><ellipse cx="25.56" cy="-19.07" rx="2.2" ry="1.2" fill="#F2C94C" stroke="#3C2819" stroke-width="0.4" transform="rotate(216 25.56 -19.07)"/><ellipse cx="27.56" cy="-20.52" rx="2.2" ry="1.2" fill="#F2C94C" stroke="#3C2819" stroke-width="0.4" transform="rotate(252 27.56 -20.52)"/><ellipse cx="30.04" cy="-20.52" rx="2.2" ry="1.2" fill="#F2C94C" stroke="#3C2819" stroke-width="0.4" transform="rotate(288 30.04 -20.52)"/><ellipse cx="32.04" cy="-19.07" rx="2.2" ry="1.2" fill="#F2C94C" stroke="#3C2819" stroke-width="0.4" transform="rotate(324 32.04 -19.07)"/><ellipse cx="28.8" cy="-16.72" rx="2.8" ry="2.8" fill="#8A5A2E" stroke="#3C2819" stroke-width="0.72" stroke-linejoin="round"/><polygon points="-24.96,-10.88 -20.48,-8.64 -20.48,-12.64 -24.96,-14.88" fill="#6E7480" stroke="#3C2819" stroke-width="0.72" stroke-linejoin="round"/><polygon points="-17.28,-10.24 -20.48,-8.64 -20.48,-12.64 -17.28,-14.24" fill="#545A65" stroke="#3C2819" stroke-width="0.72" stroke-linejoin="round"/><polygon points="-21.76,-16.48 -17.28,-14.24 -20.48,-12.64 -24.96,-14.88" fill="#9AA2AD" stroke="#3C2819" stroke-width="0.72" stroke-linejoin="round"/><rect x="-23.52" y="-12.76" width="1.6" height="1.6" rx="0.3" fill="#F2C94C" stroke="#3C2819" stroke-width="0.4"/></g></svg>
