<svg xmlns="http://www.w3.org/2000/svg" width="48" height="64" viewBox="0 0 48 64"><defs><linearGradient id="a6pineaction1G0" x1="0" y1="0" x2="0.75" y2="1"><stop offset="0" stop-color="#B0704F"/><stop offset="0.45" stop-color="#6B4430"/><stop offset="1" stop-color="#4F3224"/></linearGradient><linearGradient id="a6pineaction1G0t" gradientUnits="userSpaceOnUse" x1="4" y1="2" x2="42" y2="60"><stop offset="0" stop-color="#B0704F"/><stop offset="0.45" stop-color="#6B4430"/><stop offset="1" stop-color="#4F3224"/></linearGradient><linearGradient id="a6pineaction1G1" x1="0" y1="0" x2="0.75" y2="1"><stop offset="0" stop-color="#ABAEB5"/><stop offset="0.45" stop-color="#8A8F98"/><stop offset="1" stop-color="#646972"/></linearGradient><linearGradient id="a6pineaction1G1t" gradientUnits="userSpaceOnUse" x1="4" y1="2" x2="42" y2="60"><stop offset="0" stop-color="#ABAEB5"/><stop offset="0.45" stop-color="#8A8F98"/><stop offset="1" stop-color="#646972"/></linearGradient><linearGradient id="a6pineaction1G2" x1="0" y1="0" x2="0.75" y2="1"><stop offset="0" stop-color="#77AA72"/><stop offset="0.45" stop-color="#4E7A4A"/><stop offset="1" stop-color="#3A5A37"/></linearGradient><linearGradient id="a6pineaction1G2t" gradientUnits="userSpaceOnUse" x1="6" y1="28" x2="42" y2="60"><stop offset="0" stop-color="#77AA72"/><stop offset="0.45" stop-color="#4E7A4A"/><stop offset="1" stop-color="#3A5A37"/></linearGradient><linearGradient id="a6pineaction1G3" x1="0" y1="0" x2="0.75" y2="1"><stop offset="0" stop-color="#6C6262"/><stop offset="0.45" stop-color="#2E2A2A"/><stop offset="1" stop-color="#1F1D1D"/></linearGradient><linearGradient id="a6pineaction1G3t" gradientUnits="userSpaceOnUse" x1="6" y1="28" x2="42" y2="60"><stop offset="0" stop-color="#6C6262"/><stop offset="0.45" stop-color="#2E2A2A"/><stop offset="1" stop-color="#1F1D1D"/></linearGradient><linearGradient id="a6pineaction1G4" x1="0" y1="0" x2="0.75" y2="1"><stop offset="0" stop-color="#AD6A3E"/><stop offset="0.45" stop-color="#5E3A22"/><stop offset="1" stop-color="#462B19"/></linearGradient><linearGradient id="a6pineaction1G4t" gradientUnits="userSpaceOnUse" x1="4" y1="2" x2="42" y2="60"><stop offset="0" stop-color="#AD6A3E"/><stop offset="0.45" stop-color="#5E3A22"/><stop offset="1" stop-color="#462B19"/></linearGradient><linearGradient id="a6pineaction1G5" x1="0" y1="0" x2="0.75" y2="1"><stop offset="0" stop-color="#A39A97"/><stop offset="0.45" stop-color="#7E7370"/><stop offset="1" stop-color="#5D5553"/></linearGradient><linearGradient id="a6pineaction1G5t" gradientUnits="userSpaceOnUse" x1="4" y1="2" x2="42" y2="60"><stop offset="0" stop-color="#A39A97"/><stop offset="0.45" stop-color="#7E7370"/><stop offset="1" stop-color="#5D5553"/></linearGradient><linearGradient id="a6pineaction1G6" x1="0" y1="0" x2="0.75" y2="1"><stop offset="0" stop-color="#D77A71"/><stop offset="0.45" stop-color="#C8463A"/><stop offset="1" stop-color="#95332A"/></linearGradient><linearGradient id="a6pineaction1G6t" gradientUnits="userSpaceOnUse" x1="4" y1="2" x2="42" y2="60"><stop offset="0" stop-color="#D77A71"/><stop offset="0.45" stop-color="#C8463A"/><stop offset="1" stop-color="#95332A"/></linearGradient><linearGradient id="a6pineaction1G7" x1="0" y1="0" x2="0.75" y2="1"><stop offset="0" stop-color="#D8DCE1"/><stop offset="0.45" stop-color="#C9CED6"/><stop offset="1" stop-color="#8C96A7"/></linearGradient><linearGradient id="a6pineaction1G7t" gradientUnits="userSpaceOnUse" x1="4" y1="2" x2="42" y2="60"><stop offset="0" stop-color="#D8DCE1"/><stop offset="0.45" stop-color="#C9CED6"/><stop offset="1" stop-color="#8C96A7"/></linearGradient></defs><g transform="translate(0 0)"><g transform="translate(0 -2)"><path d="M19.2,24.6 L28.8,24.6 L29.2,33.6 L18.8,33.6 Z" fill="#5E3C2A" stroke="#3C2819" stroke-width="1.1" stroke-linejoin="round" stroke-linecap="round"/></g><ellipse cx="41.4" cy="49.8" rx="4.6" ry="1.3" fill="rgba(40,55,20,.22)" stroke="none"/><path d="M37.2,50 Q36.8,46.4 40.4,45.6 Q44.8,45.2 45.6,48.6 Q45.8,50.2 41.4,50.3 Z" fill="#A79E92" stroke="#3C2819" stroke-width="1.1" stroke-linejoin="round" stroke-linecap="round"/><path d="M38.6,47.4 Q39.8,46.2 41.8,46.2" fill="none" stroke="#D2CBC0" stroke-width="0.8" stroke-linecap="round"/><path d="M42.8,45.8 L42.2,47.6 L43,48.8" fill="none" stroke="#3C2819" stroke-width="0.5" stroke-linejoin="round" stroke-linecap="round"/><line x1="26" y1="39" x2="41" y2="45.6" stroke="#3C2819" stroke-width="3.4" stroke-linecap="round"/><line x1="26" y1="39" x2="41" y2="45.6" stroke="#B07A45" stroke-width="1.6" stroke-linecap="round"/><line x1="26" y1="39" x2="34.25" y2="42.63" stroke="#C99A62" stroke-width="0.5" stroke-linecap="round"/><path d="M43.62,40.64 L43.51,43.86 L42.74,46.37 L41.5,48.44 L39.05,51.52 L39.48,47.56 L39.99,45.16 L41.5,42.98 Z" fill="#A9B1BB" stroke="#3C2819" stroke-width="1" stroke-linejoin="round" stroke-linecap="round"/><line x1="43.43" y1="42.3" x2="42.58" y2="44.98" stroke="#E2E8EE" stroke-width="0.6" stroke-linecap="round"/><ellipse cx="41" cy="45.6" rx="1.1" ry="1.1" fill="#6E747E" stroke="#3C2819" stroke-width="0.7" stroke-linejoin="round" stroke-linecap="round"/><path d="M13.19,33.02 L11.2,38 L23,39.4" fill="none" stroke="#3C2819" stroke-width="6.75" stroke-linecap="round" stroke-linejoin="round"/><path d="M13.19,33.02 L11.2,38 L23,39.4" fill="none" stroke="url(#a6pineaction1G2t)" stroke-width="4.55" stroke-linecap="round" stroke-linejoin="round"/><line x1="20.52" y1="39.11" x2="22.11" y2="39.29" stroke="#3C2819" stroke-width="6.75" stroke-linecap="round"/><line x1="20.52" y1="39.11" x2="22.11" y2="39.29" stroke="#40643D" stroke-width="4.55" stroke-linecap="round"/><ellipse cx="23" cy="39.4" rx="2.1" ry="2.1" fill="url(#a6pineaction1G0)" stroke="#3C2819" stroke-width="1.1" stroke-linejoin="round" stroke-linecap="round"/><path d="M34.81,33.02 L36.8,38 L28.75,40.21" fill="none" stroke="#3C2819" stroke-width="6.75" stroke-linecap="round" stroke-linejoin="round"/><path d="M34.81,33.02 L36.8,38 L28.75,40.21" fill="none" stroke="url(#a6pineaction1G2t)" stroke-width="4.55" stroke-linecap="round" stroke-linejoin="round"/><line x1="31.16" y1="39.55" x2="29.61" y2="39.97" stroke="#3C2819" stroke-width="6.75" stroke-linecap="round"/><line x1="31.16" y1="39.55" x2="29.61" y2="39.97" stroke="#40643D" stroke-width="4.55" stroke-linecap="round"/><ellipse cx="28.75" cy="40.21" rx="2.1" ry="2.1" fill="url(#a6pineaction1G0)" stroke="#3C2819" stroke-width="1.1" stroke-linejoin="round" stroke-linecap="round"/><rect x="25.19" y="42.5" width="5.9" height="15.2" rx="1.6" fill="url(#a6pineaction1G3t)" stroke="#3C2819" stroke-width="1.1" stroke-linejoin="round" stroke-linecap="round"/><rect x="29.49" y="43.1" width="1.1" height="13.6" rx="0.5" fill="#242121"/><path d="M25.14,56.5 L31.14,56.5 L31.44,60.1 Q27.74,61.9 24.84,60.3 Z" fill="url(#a6pineaction1G4)" stroke="#3C2819" stroke-width="1.1" stroke-linejoin="round" stroke-linecap="round"/><clipPath id="a6pineaction1s281565"><path d="M25.14,56.5 L31.14,56.5 L31.44,60.1 Q27.74,61.9 24.84,60.3 Z"/></clipPath><g clip-path="url(#a6pineaction1s281565)"><path d="M24.74,59.8 Q27.74,61.5 31.54,59.6 L31.54,62.1 L24.74,62.1 Z" fill="#442A18"/></g><path d="M25.14,56.5 L31.14,56.5 L31.44,60.1 Q27.74,61.9 24.84,60.3 Z" fill="none" stroke="#3C2819" stroke-width="1.1" stroke-linejoin="round" stroke-linecap="round"/><ellipse cx="27.14" cy="58.1" rx="0.9" ry="0.5" fill="#A4653B" stroke="none"/><rect x="17.92" y="42.5" width="5.9" height="15.2" rx="1.6" fill="url(#a6pineaction1G3t)" stroke="#3C2819" stroke-width="1.1" stroke-linejoin="round" stroke-linecap="round"/><rect x="22.22" y="43.1" width="1.1" height="13.6" rx="0.5" fill="#242121"/><path d="M17.87,56.5 L23.87,56.5 L24.17,60.1 Q20.47,61.9 17.57,60.3 Z" fill="url(#a6pineaction1G4)" stroke="#3C2819" stroke-width="1.1" stroke-linejoin="round" stroke-linecap="round"/><clipPath id="a6pineaction1s209565"><path d="M17.87,56.5 L23.87,56.5 L24.17,60.1 Q20.47,61.9 17.57,60.3 Z"/></clipPath><g clip-path="url(#a6pineaction1s209565)"><path d="M17.47,59.8 Q20.47,61.5 24.27,59.6 L24.27,62.1 L17.47,62.1 Z" fill="#442A18"/></g><path d="M17.87,56.5 L23.87,56.5 L24.17,60.1 Q20.47,61.9 17.57,60.3 Z" fill="none" stroke="#3C2819" stroke-width="1.1" stroke-linejoin="round" stroke-linecap="round"/><ellipse cx="19.87" cy="58.1" rx="0.9" ry="0.5" fill="#A4653B" stroke="none"/><g transform="translate(0 -2)"><path d="M13.1,32.6 Q24,30 34.9,32.6 Q34.7,39.6 34.5,46.6 Q24,49.6 13.5,46.6 Q13.3,39.6 13.1,32.6 Z" fill="url(#a6pineaction1G2t)" stroke="#3C2819" stroke-width="1.1" stroke-linejoin="round" stroke-linecap="round"/><clipPath id="a6pineaction1t"><path d="M13.1,32.6 Q24,30 34.9,32.6 Q34.7,39.6 34.5,46.6 Q24,49.6 13.5,46.6 Q13.3,39.6 13.1,32.6 Z"/></clipPath><g clip-path="url(#a6pineaction1t)"><rect x="27.2" y="30" width="14" height="22" fill="#40643D"/><path d="M8,46 Q24,49 40,46 L40,52 L8,52 Z" fill="#40643D"/><rect x="13.2" y="34" width="1.3" height="10" rx="0.6" fill="#77AA72"/><rect x="6" y="44.6" width="36" height="2" fill="#40643D"/></g><path d="M13.1,32.6 Q24,30 34.9,32.6 Q34.7,39.6 34.5,46.6 Q24,49.6 13.5,46.6 Q13.3,39.6 13.1,32.6 Z" fill="none" stroke="#3C2819" stroke-width="1.1" stroke-linejoin="round" stroke-linecap="round"/><path d="M24,33.8 L24,47.4" fill="none" stroke="#3C2819" stroke-width="0.5" stroke-linejoin="round" stroke-linecap="round"/><path d="M14,33 Q24,37.6 34,33 L35,38.6 Q24,42.2 13,38.6 Z" fill="url(#a6pineaction1G2t)" stroke="#3C2819" stroke-width="1.1" stroke-linejoin="round" stroke-linecap="round"/><clipPath id="a6pineaction1cap"><path d="M14,33 Q24,37.6 34,33 L35,38.6 Q24,42.2 13,38.6 Z"/></clipPath><g clip-path="url(#a6pineaction1cap)"><rect x="27.2" y="30.8" width="16" height="14" fill="#40643D"/></g><path d="M14,33 Q24,37.6 34,33 L35,38.6 Q24,42.2 13,38.6 Z" fill="none" stroke="#3C2819" stroke-width="1.1" stroke-linejoin="round" stroke-linecap="round"/><path d="M15.2,37.4 Q24,40.4 32.8,37.4" fill="none" stroke="#3C2819" stroke-width="0.7" stroke-linejoin="round" stroke-linecap="round"/></g><g transform="translate(0 -2)"><path d="M11.6,21 Q10.8,8 24,7.6 Q37.2,8 36.4,21 Q36.8,29.6 35.2,32.2 Q24,35.4 12.8,32.2 Q11.2,29.6 11.6,21 Z" fill="url(#a6pineaction1G0)" stroke="#3C2819" stroke-width="1.1" stroke-linejoin="round" stroke-linecap="round"/><clipPath id="a6pineaction1rz"><path d="M11.6,21 Q10.8,8 24,7.6 Q37.2,8 36.4,21 Q36.8,29.6 35.2,32.2 Q24,35.4 12.8,32.2 Q11.2,29.6 11.6,21 Z"/></clipPath><g clip-path="url(#a6pineaction1rz)"><path d="M8,31.6 Q24,34.4 40,31.6 L40,40 L8,40 Z" fill="#5E3C2A"/><path d="M8,4 L40,4 L40,27.4 Q34.6,29.6 31,28.6 Q27.6,30.4 24,29.8 Q20.4,30.4 17,28.6 Q13.4,29.6 8,27.4 Z" fill="url(#a6pineaction1G5)"/><path d="M14,28.8 Q17.4,30 20.4,29.4 M27.6,29.4 Q30.6,30 34,28.8" fill="none" stroke="#3C2819" stroke-width="0.45" stroke-linejoin="round" stroke-linecap="round"/><line x1="17.4" y1="12" x2="17.8" y2="13" stroke="#625A57" stroke-width="0.5" stroke-linecap="round"/><line x1="21.4" y1="10.4" x2="21.8" y2="11.4" stroke="#625A57" stroke-width="0.5" stroke-linecap="round"/><line x1="26.6" y1="10.6" x2="27" y2="11.6" stroke="#625A57" stroke-width="0.5" stroke-linecap="round"/><line x1="30.6" y1="12.4" x2="31" y2="13.4" stroke="#625A57" stroke-width="0.5" stroke-linecap="round"/><line x1="19" y1="17" x2="19.4" y2="18" stroke="#625A57" stroke-width="0.5" stroke-linecap="round"/><line x1="24" y1="16.2" x2="24.4" y2="17.2" stroke="#625A57" stroke-width="0.5" stroke-linecap="round"/><line x1="29" y1="17.2" x2="29.4" y2="18.2" stroke="#625A57" stroke-width="0.5" stroke-linecap="round"/><line x1="16.4" y1="21.4" x2="16.8" y2="22.4" stroke="#625A57" stroke-width="0.5" stroke-linecap="round"/><line x1="31.6" y1="21.4" x2="32" y2="22.4" stroke="#625A57" stroke-width="0.5" stroke-linecap="round"/><line x1="17" y1="10.6" x2="21.4" y2="8.8" stroke="#9F9693" stroke-width="1.1" stroke-linecap="round"/></g><path d="M11.6,21 Q10.8,8 24,7.6 Q37.2,8 36.4,21 Q36.8,29.6 35.2,32.2 Q24,35.4 12.8,32.2 Q11.2,29.6 11.6,21 Z" fill="none" stroke="#3C2819" stroke-width="1.1" stroke-linejoin="round" stroke-linecap="round"/><ellipse cx="11.6" cy="22.6" rx="1.5" ry="2.1" fill="url(#a6pineaction1G0)" stroke="#3C2819" stroke-width="1.1" stroke-linejoin="round" stroke-linecap="round"/><ellipse cx="36.4" cy="22.6" rx="1.5" ry="2.1" fill="url(#a6pineaction1G0)" stroke="#3C2819" stroke-width="1.1" stroke-linejoin="round" stroke-linecap="round"/><path d="M11.6,15.6 Q11.4,5.6 24,5.4 Q36.6,5.6 36.4,15.6 Z" fill="url(#a6pineaction1G6)" stroke="#3C2819" stroke-width="1.1" stroke-linejoin="round" stroke-linecap="round"/><path d="M23.4,5.6 L23.4,15.4" fill="none" stroke="#3C2819" stroke-width="0.5" stroke-linejoin="round" stroke-linecap="round"/><ellipse cx="24" cy="5.6" rx="1.1" ry="0.8" fill="#A1372D" stroke="#3C2819" stroke-width="0.6" stroke-linejoin="round" stroke-linecap="round"/></g><ellipse cx="37.8" cy="43.4" rx="0.9" ry="0.72" fill="#9A8E80" stroke="#3C2819" stroke-width="0.5" stroke-linejoin="round" stroke-linecap="round"/><ellipse cx="39.8" cy="41.4" rx="0.7" ry="0.56" fill="#9A8E80" stroke="#3C2819" stroke-width="0.5" stroke-linejoin="round" stroke-linecap="round"/><ellipse cx="44" cy="42.6" rx="0.8" ry="0.64" fill="#9A8E80" stroke="#3C2819" stroke-width="0.5" stroke-linejoin="round" stroke-linecap="round"/><ellipse cx="45.2" cy="44.6" rx="0.6" ry="0.48" fill="#9A8E80" stroke="#3C2819" stroke-width="0.5" stroke-linejoin="round" stroke-linecap="round"/><line x1="41.4" y1="44.6" x2="41.4" y2="43" stroke="#3C2819" stroke-width="1.4" stroke-linecap="round"/><line x1="41.4" y1="44.6" x2="41.4" y2="43" stroke="#FFF2B0" stroke-width="0.6" stroke-linecap="round"/><line x1="42.38" y1="45.02" x2="43.5" y2="43.9" stroke="#3C2819" stroke-width="1.4" stroke-linecap="round"/><line x1="42.38" y1="45.02" x2="43.5" y2="43.9" stroke="#FFF2B0" stroke-width="0.6" stroke-linecap="round"/><line x1="40.42" y1="45.02" x2="39.3" y2="43.9" stroke="#3C2819" stroke-width="1.4" stroke-linecap="round"/><line x1="40.42" y1="45.02" x2="39.3" y2="43.9" stroke="#FFF2B0" stroke-width="0.6" stroke-linecap="round"/><ellipse cx="41.4" cy="46.6" rx="4.4" ry="1.2" fill="rgba(110,90,70,.35)" stroke="none"/></g></svg>
