<svg xmlns="http://www.w3.org/2000/svg" width="48" height="64" viewBox="0 0 48 64"><g transform="translate(0 -1)"><g transform="translate(0 3.2)"><path d="M19.2,24.6 L28.8,24.6 L29.2,33.6 L18.8,33.6 Z" fill="#ECB176" stroke="#3C2819" stroke-width="1.1" stroke-linejoin="round" stroke-linecap="round"/></g><rect x="25.3" y="47.7" width="5.4" height="10" rx="1.6" fill="#6E2E3A" stroke="#3C2819" stroke-width="1.1" stroke-linejoin="round" stroke-linecap="round"/><rect x="29.1" y="48.300000000000004" width="1.1" height="8.4" rx="0.5" fill="#56242D"/><path d="M25,56.5 L31,56.5 L31.3,60.1 Q27.6,61.9 24.7,60.3 Z" fill="#3E5A8C" stroke="#3C2819" stroke-width="1.1" stroke-linejoin="round" stroke-linecap="round"/><clipPath id="a7nemarche3s280565"><path d="M25,56.5 L31,56.5 L31.3,60.1 Q27.6,61.9 24.7,60.3 Z"/></clipPath><g clip-path="url(#a7nemarche3s280565)"><path d="M24.6,59.8 Q27.6,61.5 31.4,59.6 L31.4,62.1 L24.6,62.1 Z" fill="#2D4165"/></g><path d="M25,56.5 L31,56.5 L31.3,60.1 Q27.6,61.9 24.7,60.3 Z" fill="none" stroke="#3C2819" stroke-width="1.1" stroke-linejoin="round" stroke-linecap="round"/><ellipse cx="27" cy="58.1" rx="0.9" ry="0.5" fill="#5F7FB8" stroke="none"/><rect x="18.3" y="47.7" width="5.4" height="10" rx="1.6" fill="#6E2E3A" stroke="#3C2819" stroke-width="1.1" stroke-linejoin="round" stroke-linecap="round"/><rect x="22.1" y="48.300000000000004" width="1.1" height="8.4" rx="0.5" fill="#56242D"/><path d="M18,56.5 L24,56.5 L24.3,60.1 Q20.6,61.9 17.7,60.3 Z" fill="#3E5A8C" stroke="#3C2819" stroke-width="1.1" stroke-linejoin="round" stroke-linecap="round"/><clipPath id="a7nemarche3s210565"><path d="M18,56.5 L24,56.5 L24.3,60.1 Q20.6,61.9 17.7,60.3 Z"/></clipPath><g clip-path="url(#a7nemarche3s210565)"><path d="M17.6,59.8 Q20.6,61.5 24.4,59.6 L24.4,62.1 L17.6,62.1 Z" fill="#2D4165"/></g><path d="M18,56.5 L24,56.5 L24.3,60.1 Q20.6,61.9 17.7,60.3 Z" fill="none" stroke="#3C2819" stroke-width="1.1" stroke-linejoin="round" stroke-linecap="round"/><ellipse cx="20" cy="58.1" rx="0.9" ry="0.5" fill="#5F7FB8" stroke="none"/><g transform="translate(0 3.2)"><path d="M15.5,32.6 Q24,30 32.5,32.6 Q33.35,39.6 34.2,46.6 Q24,49.6 13.8,46.6 Q14.65,39.6 15.5,32.6 Z" fill="#F1E6CC" stroke="#3C2819" stroke-width="1.1" stroke-linejoin="round" stroke-linecap="round"/><clipPath id="a7nemarche3t"><path d="M15.5,32.6 Q24,30 32.5,32.6 Q33.35,39.6 34.2,46.6 Q24,49.6 13.8,46.6 Q14.65,39.6 15.5,32.6 Z"/></clipPath><g clip-path="url(#a7nemarche3t)"><rect x="27.2" y="30" width="14" height="22" fill="#E0C78D"/><path d="M8,46 Q24,49 40,46 L40,52 L8,52 Z" fill="#E0C78D"/><rect x="15.6" y="34" width="1.3" height="10" rx="0.6" fill="#F5EDDA"/><rect x="6" y="44.6" width="36" height="2" fill="#E0C78D"/><line x1="17" y1="44.8" x2="17" y2="46.6" stroke="#D4B363" stroke-width="0.4" stroke-linecap="round"/><line x1="20" y1="44.8" x2="20" y2="46.6" stroke="#D4B363" stroke-width="0.4" stroke-linecap="round"/><line x1="23" y1="44.8" x2="23" y2="46.6" stroke="#D4B363" stroke-width="0.4" stroke-linecap="round"/><line x1="26" y1="44.8" x2="26" y2="46.6" stroke="#D4B363" stroke-width="0.4" stroke-linecap="round"/><line x1="29" y1="44.8" x2="29" y2="46.6" stroke="#D4B363" stroke-width="0.4" stroke-linecap="round"/><line x1="32" y1="44.8" x2="32" y2="46.6" stroke="#D4B363" stroke-width="0.4" stroke-linecap="round"/></g><path d="M15.5,32.6 Q24,30 32.5,32.6 Q33.35,39.6 34.2,46.6 Q24,49.6 13.8,46.6 Q14.65,39.6 15.5,32.6 Z" fill="none" stroke="#3C2819" stroke-width="1.1" stroke-linejoin="round" stroke-linecap="round"/><path d="M24,33.8 L24,47.4" fill="none" stroke="#3C2819" stroke-width="0.5" stroke-linejoin="round" stroke-linecap="round"/></g><path d="M32,37.2 L33.8,48.4" fill="none" stroke="#3C2819" stroke-width="6" stroke-linecap="round" stroke-linejoin="round"/><path d="M32,37.2 L33.8,48.4" fill="none" stroke="#F1E6CC" stroke-width="3.8" stroke-linecap="round" stroke-linejoin="round"/><line x1="33.4" y1="45.93" x2="33.66" y2="47.51" stroke="#3C2819" stroke-width="6" stroke-linecap="round"/><line x1="33.4" y1="45.93" x2="33.66" y2="47.51" stroke="#E0C78D" stroke-width="3.8" stroke-linecap="round"/><ellipse cx="33.8" cy="48.4" rx="2.1" ry="2.1" fill="#F2C9A0" stroke="#3C2819" stroke-width="1.1" stroke-linejoin="round" stroke-linecap="round"/><g transform="translate(0 3.2)"><path d="M15.6,30.6 Q24,35.4 32.4,30.6 L33.2,33.8 Q24,39.2 14.8,33.8 Z" fill="#C8463A" stroke="#3C2819" stroke-width="1.1" stroke-linejoin="round" stroke-linecap="round"/><clipPath id="a7nemarche3ecne"><path d="M15.6,30.6 Q24,35.4 32.4,30.6 L33.2,33.8 Q24,39.2 14.8,33.8 Z"/></clipPath><g clip-path="url(#a7nemarche3ecne)"><rect x="8" y="20" width="2.6" height="30" fill="#F1E6CC" transform="rotate(20 24 36)"/><rect x="14" y="20" width="2.6" height="30" fill="#F1E6CC" transform="rotate(20 24 36)"/><rect x="20" y="20" width="2.6" height="30" fill="#F1E6CC" transform="rotate(20 24 36)"/><rect x="26" y="20" width="2.6" height="30" fill="#F1E6CC" transform="rotate(20 24 36)"/><rect x="32" y="20" width="2.6" height="30" fill="#F1E6CC" transform="rotate(20 24 36)"/><rect x="38" y="20" width="2.6" height="30" fill="#F1E6CC" transform="rotate(20 24 36)"/></g><path d="M15.6,30.6 Q24,35.4 32.4,30.6 L33.2,33.8 Q24,39.2 14.8,33.8 Z" fill="none" stroke="#3C2819" stroke-width="1.1" stroke-linejoin="round" stroke-linecap="round"/></g><path d="M16,37.2 L14.2,48.4" fill="none" stroke="#3C2819" stroke-width="6" stroke-linecap="round" stroke-linejoin="round"/><path d="M16,37.2 L14.2,48.4" fill="none" stroke="#F1E6CC" stroke-width="3.8" stroke-linecap="round" stroke-linejoin="round"/><line x1="14.6" y1="45.93" x2="14.34" y2="47.51" stroke="#3C2819" stroke-width="6" stroke-linecap="round"/><line x1="14.6" y1="45.93" x2="14.34" y2="47.51" stroke="#E0C78D" stroke-width="3.8" stroke-linecap="round"/><ellipse cx="14.2" cy="48.4" rx="2.1" ry="2.1" fill="#F2C9A0" stroke="#3C2819" stroke-width="1.1" stroke-linejoin="round" stroke-linecap="round"/><g transform="translate(0 3.2)"><ellipse cx="12.6" cy="23" rx="1.6" ry="2.2" fill="#F2C9A0" stroke="#3C2819" stroke-width="1.1" stroke-linejoin="round" stroke-linecap="round"/><ellipse cx="35.4" cy="23" rx="1.6" ry="2.2" fill="#F2C9A0" stroke="#3C2819" stroke-width="1.1" stroke-linejoin="round" stroke-linecap="round"/><path d="M11,21 Q10,6.6 24,6.4 Q38,6.6 37,21 Q37.4,27.4 36.2,30.4 L35.8,32.8 L34.2,31.6 L33.2,33.8 L31.6,32 L30.2,33.8 L28.8,31.9 L27.2,33.4 Q25.8,30.4 24,29.2 Q22.2,30.4 20.8,33.4 L19.2,31.9 L18,33.8 L16.6,32 L15,33.8 L13.8,31.6 L12.2,32.8 L11.8,30.4 Q10.6,27.4 11,21 Z" fill="#D9D4CC" stroke="#3C2819" stroke-width="1.1" stroke-linejoin="round" stroke-linecap="round"/><clipPath id="a7nemarche3h"><path d="M11,21 Q10,6.6 24,6.4 Q38,6.6 37,21 Q37.4,27.4 36.2,30.4 L35.8,32.8 L34.2,31.6 L33.2,33.8 L31.6,32 L30.2,33.8 L28.8,31.9 L27.2,33.4 Q25.8,30.4 24,29.2 Q22.2,30.4 20.8,33.4 L19.2,31.9 L18,33.8 L16.6,32 L15,33.8 L13.8,31.6 L12.2,32.8 L11.8,30.4 Q10.6,27.4 11,21 Z"/></clipPath><g clip-path="url(#a7nemarche3h)"><rect x="8" y="4" width="34" height="40" fill="#AA9F8D"/><ellipse cx="22.4" cy="18.4" rx="13.8" ry="12.8" fill="#D9D4CC"/></g><path d="M11,21 Q10,6.6 24,6.4 Q38,6.6 37,21 Q37.4,27.4 36.2,30.4 L35.8,32.8 L34.2,31.6 L33.2,33.8 L31.6,32 L30.2,33.8 L28.8,31.9 L27.2,33.4 Q25.8,30.4 24,29.2 Q22.2,30.4 20.8,33.4 L19.2,31.9 L18,33.8 L16.6,32 L15,33.8 L13.8,31.6 L12.2,32.8 L11.8,30.4 Q10.6,27.4 11,21 Z" fill="none" stroke="#3C2819" stroke-width="1.1" stroke-linejoin="round" stroke-linecap="round"/><clipPath id="a7nemarche3hs"><path d="M11,21 Q10,6.6 24,6.4 Q38,6.6 37,21 Q37.4,27.4 36.2,30.4 L35.8,32.8 L34.2,31.6 L33.2,33.8 L31.6,32 L30.2,33.8 L28.8,31.9 L27.2,33.4 Q25.8,30.4 24,29.2 Q22.2,30.4 20.8,33.4 L19.2,31.9 L18,33.8 L16.6,32 L15,33.8 L13.8,31.6 L12.2,32.8 L11.8,30.4 Q10.6,27.4 11,21 Z"/></clipPath><g clip-path="url(#a7nemarche3hs)"><path d="M20.6,9.8 Q17,16 17.6,27.6 M24,9.2 Q25,18 24,29.4 M27.6,9.6 Q32.4,14 31.2,27.4" fill="none" stroke="#3C2819" stroke-width="0.55" stroke-linejoin="round" stroke-linecap="round"/></g><line x1="16.4" y1="10.6" x2="21.6" y2="8.6" stroke="#E5E2DC" stroke-width="1.3" stroke-linecap="round"/><clipPath id="a7nemarche3mcne"><path d="M11,21 Q10,6.6 24,6.4 Q38,6.6 37,21 Q37.4,27.4 36.2,30.4 L35.8,32.8 L34.2,31.6 L33.2,33.8 L31.6,32 L30.2,33.8 L28.8,31.9 L27.2,33.4 Q25.8,30.4 24,29.2 Q22.2,30.4 20.8,33.4 L19.2,31.9 L18,33.8 L16.6,32 L15,33.8 L13.8,31.6 L12.2,32.8 L11.8,30.4 Q10.6,27.4 11,21 Z"/></clipPath><g clip-path="url(#a7nemarche3mcne)"><path d="M20.6,9.8 Q17,16 17.6,27.6 M24,9.2 Q25,18 24,29.4 M27.6,9.6 Q32.4,14 31.2,27.4" fill="none" stroke="#9DC8E2" stroke-width="1.3" stroke-linecap="round"/></g><path d="M11.2,15.4 Q10.8,4.6 24,4.4 Q37.2,4.6 36.8,15.4 Z" fill="#C8463A" stroke="#3C2819" stroke-width="1.1" stroke-linejoin="round" stroke-linecap="round"/><clipPath id="a7nemarche3bnne"><path d="M11.2,15.4 Q10.8,4.6 24,4.4 Q37.2,4.6 36.8,15.4 Z"/></clipPath><g clip-path="url(#a7nemarche3bnne)"><line x1="14" y1="5" x2="14" y2="15" stroke="#A5382E" stroke-width="0.6" stroke-linecap="round"/><line x1="18.6" y1="5" x2="18.6" y2="15" stroke="#A5382E" stroke-width="0.6" stroke-linecap="round"/><line x1="23.2" y1="5" x2="23.2" y2="15" stroke="#A5382E" stroke-width="0.6" stroke-linecap="round"/><line x1="27.8" y1="5" x2="27.8" y2="15" stroke="#A5382E" stroke-width="0.6" stroke-linecap="round"/><line x1="32.4" y1="5" x2="32.4" y2="15" stroke="#A5382E" stroke-width="0.6" stroke-linecap="round"/></g><path d="M11.2,15.4 Q10.8,4.6 24,4.4 Q37.2,4.6 36.8,15.4 Z" fill="none" stroke="#3C2819" stroke-width="1.1" stroke-linejoin="round" stroke-linecap="round"/><rect x="10.6" y="13.4" width="26.8" height="3.4" rx="1.6" fill="#AB3A30" stroke="#3C2819" stroke-width="1"/><ellipse cx="24" cy="6.2" rx="2.4" ry="1.9" fill="#F1E6CC" stroke="#3C2819" stroke-width="1.1" stroke-linejoin="round" stroke-linecap="round"/></g></g></svg>
