<svg xmlns="http://www.w3.org/2000/svg" width="400" height="400" viewBox="0 0 400 400"><defs><linearGradient id="luC" x1="0" y1="0" x2="0" y2="1"><stop offset="0" stop-color="#0B1028" stop-opacity="1"/><stop offset="1" stop-color="#26355C" stop-opacity="1"/></linearGradient></defs><rect x="0" y="0" width="400" height="240" fill="url(#luC)"/><circle cx="0.19" cy="4.05" r="0.71" fill="#FFF6DC"><animate attributeName="opacity" values="1;0.25;1" dur="4.34s" begin="-2.16s" repeatCount="indefinite"/></circle><circle cx="142.6" cy="147.85" r="1.09" fill="#FFF6DC"><animate attributeName="opacity" values="1;0.25;1" dur="2.94s" begin="-0.05s" repeatCount="indefinite"/></circle><circle cx="157.45" cy="116.35" r="1.43" fill="#FFF6DC"><animate attributeName="opacity" values="1;0.25;1" dur="2.08s" begin="-0.54s" repeatCount="indefinite"/></circle><circle cx="124.68" cy="159.82" r="1.16" fill="#FFF6DC"><animate attributeName="opacity" values="1;0.25;1" dur="2.81s" begin="-0.22s" repeatCount="indefinite"/></circle><circle cx="186.66" cy="151.83" r="1.71" fill="#FFF6DC"><animate attributeName="opacity" values="1;0.25;1" dur="3.77s" begin="-2.32s" repeatCount="indefinite"/></circle><path d="M186.66,146.7 L186.66,156.96 M181.53,151.83 L191.79,151.83" stroke="#FFF6DC" stroke-width="0.5" opacity=".55"/><circle cx="57.06" cy="103.68" r="1.67" fill="#FFF6DC"><animate attributeName="opacity" values="1;0.25;1" dur="2.78s" begin="-2.15s" repeatCount="indefinite"/></circle><path d="M57.06,98.67 L57.06,108.69 M52.05,103.68 L62.07,103.68" stroke="#FFF6DC" stroke-width="0.5" opacity=".55"/><circle cx="211.83" cy="83.99" r="0.61" fill="#FFF6DC"><animate attributeName="opacity" values="1;0.25;1" dur="4.13s" begin="-3.72s" repeatCount="indefinite"/></circle><circle cx="8.92" cy="100.46" r="0.77" fill="#FFF6DC"><animate attributeName="opacity" values="1;0.25;1" dur="2.98s" begin="-0.85s" repeatCount="indefinite"/></circle><circle cx="27.75" cy="159.05" r="0.7" fill="#FFF6DC"><animate attributeName="opacity" values="1;0.25;1" dur="4.28s" begin="-3.18s" repeatCount="indefinite"/></circle><circle cx="173.54" cy="90.05" r="1.76" fill="#FFF6DC"><animate attributeName="opacity" values="1;0.25;1" dur="3.45s" begin="-2.14s" repeatCount="indefinite"/></circle><path d="M173.54,84.77 L173.54,95.33 M168.26,90.05 L178.82,90.05" stroke="#FFF6DC" stroke-width="0.5" opacity=".55"/><circle cx="302.47" cy="24.08" r="1.21" fill="#FFF6DC"><animate attributeName="opacity" values="1;0.25;1" dur="3.8s" begin="-3.48s" repeatCount="indefinite"/></circle><circle cx="62.78" cy="115.19" r="1.51" fill="#FFF6DC"><animate attributeName="opacity" values="1;0.25;1" dur="3s" begin="-2.08s" repeatCount="indefinite"/></circle><circle cx="73.54" cy="131.9" r="1.19" fill="#FFF6DC"><animate attributeName="opacity" values="1;0.25;1" dur="3s" begin="-0.56s" repeatCount="indefinite"/></circle><circle cx="53.03" cy="39.92" r="1.24" fill="#FFF6DC"><animate attributeName="opacity" values="1;0.25;1" dur="3.92s" begin="-1.95s" repeatCount="indefinite"/></circle><circle cx="217.25" cy="73.55" r="1.68" fill="#FFF6DC"><animate attributeName="opacity" values="1;0.25;1" dur="3.73s" begin="-1.17s" repeatCount="indefinite"/></circle><path d="M217.25,68.51 L217.25,78.59 M212.21,73.55 L222.29,73.55" stroke="#FFF6DC" stroke-width="0.5" opacity=".55"/><circle cx="132.48" cy="67.96" r="0.67" fill="#FFF6DC"><animate attributeName="opacity" values="1;0.25;1" dur="2.98s" begin="-2.93s" repeatCount="indefinite"/></circle><circle cx="198.74" cy="110.04" r="1.76" fill="#FFF6DC"><animate attributeName="opacity" values="1;0.25;1" dur="4.39s" begin="-4.23s" repeatCount="indefinite"/></circle><path d="M198.74,104.76 L198.74,115.32 M193.46,110.04 L204.02,110.04" stroke="#FFF6DC" stroke-width="0.5" opacity=".55"/><circle cx="160.86" cy="154.65" r="0.9" fill="#FFF6DC"><animate attributeName="opacity" values="1;0.25;1" dur="4.31s" begin="-0.87s" repeatCount="indefinite"/></circle><circle cx="89.96" cy="116.56" r="1.09" fill="#FFF6DC"><animate attributeName="opacity" values="1;0.25;1" dur="2.61s" begin="-0.15s" repeatCount="indefinite"/></circle><circle cx="241.95" cy="23.28" r="1" fill="#FFF6DC"><animate attributeName="opacity" values="1;0.25;1" dur="2.91s" begin="-0.99s" repeatCount="indefinite"/></circle><circle cx="310.22" cy="92.3" r="1.22" fill="#FFF6DC"><animate attributeName="opacity" values="1;0.25;1" dur="4.08s" begin="-1.54s" repeatCount="indefinite"/></circle><circle cx="348.38" cy="160.95" r="0.62" fill="#FFF6DC"><animate attributeName="opacity" values="1;0.25;1" dur="3.36s" begin="-1.37s" repeatCount="indefinite"/></circle><circle cx="110.8" cy="109.79" r="1.6" fill="#FFF6DC"><animate attributeName="opacity" values="1;0.25;1" dur="2.67s" begin="-0.31s" repeatCount="indefinite"/></circle><path d="M110.8,104.99 L110.8,114.59 M106,109.79 L115.6,109.79" stroke="#FFF6DC" stroke-width="0.5" opacity=".55"/><circle cx="145.77" cy="126.79" r="1.77" fill="#FFF6DC"><animate attributeName="opacity" values="1;0.25;1" dur="3.35s" begin="-3.2s" repeatCount="indefinite"/></circle><path d="M145.77,121.48 L145.77,132.1 M140.46,126.79 L151.08,126.79" stroke="#FFF6DC" stroke-width="0.5" opacity=".55"/><circle cx="220.16" cy="127.48" r="0.82" fill="#FFF6DC"><animate attributeName="opacity" values="1;0.25;1" dur="2.51s" begin="-1.61s" repeatCount="indefinite"/></circle><circle cx="119.6" cy="35.99" r="1.36" fill="#FFF6DC"><animate attributeName="opacity" values="1;0.25;1" dur="1.89s" begin="-0.7s" repeatCount="indefinite"/></circle><defs><radialGradient id="luL" cx="0.5" cy="0.5" r="0.5"><stop offset="0" stop-color="rgb(200,214,240)" stop-opacity="0.16"/><stop offset="0.3" stop-color="rgb(200,214,240)" stop-opacity="0.07200000000000001"/><stop offset="0.65" stop-color="rgb(200,214,240)" stop-opacity="0.0192"/><stop offset="1" stop-color="rgb(200,214,240)" stop-opacity="0"/></radialGradient></defs><circle cx="66" cy="56" r="96" fill="url(#luL)"><animate attributeName="opacity" values="0.75;1;0.75" dur="9s" begin="0s" repeatCount="indefinite"/></circle><defs><linearGradient id="luM" x1="0" y1="0" x2="0" y2="1"><stop offset="0" stop-color="#1E3552" stop-opacity="1"/><stop offset="1" stop-color="#2C4A6E" stop-opacity="1"/></linearGradient><linearGradient id="luMv" x1="0" y1="0" x2="0" y2="1"><stop offset="0" stop-color="#9FB8D2" stop-opacity="0.85"/><stop offset="0.4" stop-color="#3E6890" stop-opacity="0.5"/><stop offset="1" stop-color="#3E6890" stop-opacity="0"/></linearGradient></defs><rect x="0" y="186" width="400" height="54" fill="url(#luM)"/><rect x="0" y="186" width="400" height="1.4" fill="#9FB8D2" opacity=".3"/><g><animateTransform attributeName="transform" type="translate" from="0 0" to="-70 0" dur="9.38s" begin="0s" repeatCount="indefinite"/><path d="M-70,193.56 q17.5,-1.6 35,0 q17.5,0.72 35,0 q17.5,-1.6 35,0 q17.5,0.72 35,0 q17.5,-1.6 35,0 q17.5,0.72 35,0 q17.5,-1.6 35,0 q17.5,0.72 35,0 q17.5,-1.6 35,0 q17.5,0.72 35,0 q17.5,-1.6 35,0 q17.5,0.72 35,0 q17.5,-1.6 35,0 q17.5,0.72 35,0 q17.5,-1.6 35,0 q17.5,0.72 35,0 q17.5,-1.6 35,0 q17.5,0.72 35,0 L540,199.56 L-70,199.56 Z" fill="url(#luMv)" opacity="0.3"/></g><g><animateTransform attributeName="transform" type="translate" from="0 0" to="-86 0" dur="8.38s" begin="-0.9s" repeatCount="indefinite"/><path d="M-86,203.82 q21.5,-2.9 43,0 q21.5,1.31 43,0 q21.5,-2.9 43,0 q21.5,1.31 43,0 q21.5,-2.9 43,0 q21.5,1.31 43,0 q21.5,-2.9 43,0 q21.5,1.31 43,0 q21.5,-2.9 43,0 q21.5,1.31 43,0 q21.5,-2.9 43,0 q21.5,1.31 43,0 q21.5,-2.9 43,0 q21.5,1.31 43,0 q21.5,-2.9 43,0 q21.5,1.31 43,0 L572,212.02 L-86,212.02 Z" fill="url(#luMv)" opacity="0.4"/></g><g><animateTransform attributeName="transform" type="translate" from="0 0" to="-102 0" dur="7.38s" begin="-1.8s" repeatCount="indefinite"/><path d="M-102,214.08 q25.5,-4.2 51,0 q25.5,1.89 51,0 q25.5,-4.2 51,0 q25.5,1.89 51,0 q25.5,-4.2 51,0 q25.5,1.89 51,0 q25.5,-4.2 51,0 q25.5,1.89 51,0 q25.5,-4.2 51,0 q25.5,1.89 51,0 q25.5,-4.2 51,0 q25.5,1.89 51,0 q25.5,-4.2 51,0 q25.5,1.89 51,0 L604,224.48 L-102,224.48 Z" fill="url(#luMv)" opacity="0.5"/></g><g><animateTransform attributeName="transform" type="translate" from="0 0" to="-118 0" dur="6.37s" begin="-2.7s" repeatCount="indefinite"/><path d="M-118,224.34 q29.5,-5.5 59,0 q29.5,2.48 59,0 q29.5,-5.5 59,0 q29.5,2.48 59,0 q29.5,-5.5 59,0 q29.5,2.48 59,0 q29.5,-5.5 59,0 q29.5,2.48 59,0 q29.5,-5.5 59,0 q29.5,2.48 59,0 q29.5,-5.5 59,0 q29.5,2.48 59,0 q29.5,-5.5 59,0 q29.5,2.48 59,0 L636,236.94 L-118,236.94 Z" fill="url(#luMv)" opacity="0.6"/></g><g><animateTransform attributeName="transform" type="translate" from="0 0" to="-134 0" dur="5.37s" begin="-3.6s" repeatCount="indefinite"/><path d="M-134,234.6 q33.5,-6.8 67,0 q33.5,3.06 67,0 q33.5,-6.8 67,0 q33.5,3.06 67,0 q33.5,-6.8 67,0 q33.5,3.06 67,0 q33.5,-6.8 67,0 q33.5,3.06 67,0 q33.5,-6.8 67,0 q33.5,3.06 67,0 q33.5,-6.8 67,0 q33.5,3.06 67,0 L668,249.4 L-134,249.4 Z" fill="url(#luMv)" opacity="0.7"/></g><defs><radialGradient id="luN1" cx="0.5" cy="0.5" r="0.5"><stop offset="0" stop-color="rgb(220,230,242)" stop-opacity="0.36"/><stop offset="0.45" stop-color="rgb(220,230,242)" stop-opacity="0.216"/><stop offset="1" stop-color="rgb(220,230,242)" stop-opacity="0"/></radialGradient></defs><g><animateTransform attributeName="transform" type="translate" values="-20 0;20 0;-20 0" keySplines="0.45 0 0.55 1;0.45 0 0.55 1" keyTimes="0;0.5;1" calcMode="spline" dur="16s" begin="0s" repeatCount="indefinite" additive="sum"/><ellipse cx="-30" cy="226" rx="240" ry="28.8" fill="url(#luN1)"><animate attributeName="opacity" values="0.75;1;0.75" dur="5s" begin="-1.58s" repeatCount="indefinite"/></ellipse><ellipse cx="150" cy="236" rx="270" ry="28.8" fill="url(#luN1)"><animate attributeName="opacity" values="0.75;1;0.75" dur="6.07s" begin="-1.5s" repeatCount="indefinite"/></ellipse><ellipse cx="330" cy="220" rx="230" ry="28.8" fill="url(#luN1)"><animate attributeName="opacity" values="0.75;1;0.75" dur="7.39s" begin="-2.63s" repeatCount="indefinite"/></ellipse><ellipse cx="60" cy="210" rx="180" ry="28.8" fill="url(#luN1)"><animate attributeName="opacity" values="0.75;1;0.75" dur="5.56s" begin="-0.15s" repeatCount="indefinite"/></ellipse><ellipse cx="260" cy="242" rx="200" ry="28.8" fill="url(#luN1)"><animate attributeName="opacity" values="0.75;1;0.75" dur="5.15s" begin="-3.22s" repeatCount="indefinite"/></ellipse></g><defs><linearGradient id="luS" x1="0" y1="0" x2="0" y2="1"><stop offset="0" stop-color="#5E5A56" stop-opacity="1"/><stop offset="0.4" stop-color="#5E5A56" stop-opacity="1"/><stop offset="1" stop-color="#3A3634" stop-opacity="1"/></linearGradient><linearGradient id="luSh" x1="0" y1="0" x2="0" y2="1"><stop offset="0" stop-color="#8FA9C4" stop-opacity="0.38"/><stop offset="1" stop-color="#8FA9C4" stop-opacity="0"/></linearGradient><radialGradient id="luSg" cx="0.35" cy="0.3" r="0.78"><stop offset="0" stop-color="#6A7286" stop-opacity="1"/><stop offset="1" stop-color="#3E4352" stop-opacity="1"/></radialGradient></defs><path d="M0,240 Q120,226 220.00000000000003,234 Q320,242 400,230 L400,400 L0,400 Z" fill="url(#luS)" stroke="#3C2819" stroke-width="2" stroke-linejoin="round" stroke-linecap="round"/><g><animateTransform attributeName="transform" type="translate" values="0 -3;0 5;0 -3" keySplines="0.45 0 0.55 1;0.45 0 0.55 1" keyTimes="0;0.5;1" calcMode="spline" dur="4.6s" begin="0s" repeatCount="indefinite" additive="sum"/><path d="M0,240 Q120,226 220.00000000000003,234 Q320,242 400,230 L400,266 Q320,274 220.00000000000003,266 Q120,258 0,268 Z" fill="url(#luSh)" stroke="none"/><path d="M-10,243 Q120,229 220.00000000000003,237 Q320,245 410,233" fill="none" stroke="#8FA9C4" stroke-width="3" stroke-linecap="round" stroke-linejoin="round" opacity=".42"/><path d="M-10,241 Q120,227 220.00000000000003,235 Q320,243 410,231" fill="none" stroke="#FFFFFF" stroke-width="1.1" stroke-linecap="round" stroke-linejoin="round" opacity=".55"/><circle cx="0.19" cy="241.11" r="0.91" fill="#FFFFFF" opacity=".5"><animate attributeName="opacity" values="0.2;0.6;0.2" dur="3.96s" begin="-1.5s" repeatCount="indefinite"/></circle><circle cx="142.6" cy="240" r="1.29" fill="#FFFFFF" opacity=".5"><animate attributeName="opacity" values="0.2;0.6;0.2" dur="2.87s" begin="-0.05s" repeatCount="indefinite"/></circle><circle cx="157.45" cy="238.72" r="1.63" fill="#FFFFFF" opacity=".5"><animate attributeName="opacity" values="0.2;0.6;0.2" dur="2.22s" begin="-0.78s" repeatCount="indefinite"/></circle><circle cx="124.68" cy="240.83" r="1.36" fill="#FFFFFF" opacity=".5"><animate attributeName="opacity" values="0.2;0.6;0.2" dur="2.78s" begin="-0.23s" repeatCount="indefinite"/></circle><circle cx="186.66" cy="239.18" r="1.91" fill="#FFFFFF" opacity=".5"><animate attributeName="opacity" values="0.2;0.6;0.2" dur="3.51s" begin="-1.85s" repeatCount="indefinite"/></circle><circle cx="57.06" cy="241.48" r="1.87" fill="#FFFFFF" opacity=".5"><animate attributeName="opacity" values="0.2;0.6;0.2" dur="2.75s" begin="-2.32s" repeatCount="indefinite"/></circle><circle cx="211.83" cy="236.81" r="0.81" fill="#FFFFFF" opacity=".5"><animate attributeName="opacity" values="0.2;0.6;0.2" dur="3.79s" begin="-2.7s" repeatCount="indefinite"/></circle><circle cx="8.92" cy="243.52" r="0.97" fill="#FFFFFF" opacity=".5"><animate attributeName="opacity" values="0.2;0.6;0.2" dur="2.91s" begin="-0.86s" repeatCount="indefinite"/></circle><circle cx="27.75" cy="244.36" r="0.9" fill="#FFFFFF" opacity=".5"><animate attributeName="opacity" values="0.2;0.6;0.2" dur="3.91s" begin="-2.23s" repeatCount="indefinite"/></circle><circle cx="173.54" cy="237.61" r="1.96" fill="#FFFFFF" opacity=".5"><animate attributeName="opacity" values="0.2;0.6;0.2" dur="3.27s" begin="-1.86s" repeatCount="indefinite"/></circle><circle cx="302.47" cy="234.59" r="1.41" fill="#FFFFFF" opacity=".5"><animate attributeName="opacity" values="0.2;0.6;0.2" dur="3.54s" begin="-2.75s" repeatCount="indefinite"/></circle><circle cx="62.78" cy="241.59" r="1.71" fill="#FFFFFF" opacity=".5"><animate attributeName="opacity" values="0.2;0.6;0.2" dur="2.92s" begin="-2.08s" repeatCount="indefinite"/></circle></g><path d="M73.54,359.35 q27.35,-2.92 54.69,0" fill="none" stroke="#3A3634" stroke-width="1.2" stroke-linecap="round" stroke-linejoin="round" opacity=".45"/><path d="M73.54,360.75 q27.35,-2.37 54.69,0" fill="none" stroke="#5E5A56" stroke-width="0.8" stroke-linecap="round" stroke-linejoin="round" opacity=".35"/><path d="M53.03,299.83 q28.37,-3.63 56.74,0" fill="none" stroke="#3A3634" stroke-width="1.2" stroke-linecap="round" stroke-linejoin="round" opacity=".45"/><path d="M53.03,301.23 q28.37,-3 56.74,0" fill="none" stroke="#5E5A56" stroke-width="0.8" stroke-linecap="round" stroke-linejoin="round" opacity=".35"/><path d="M217.25,321.59 q37.55,-3.49 75.1,0" fill="none" stroke="#3A3634" stroke-width="1.2" stroke-linecap="round" stroke-linejoin="round" opacity=".45"/><path d="M217.25,322.99 q37.55,-2.63 75.1,0" fill="none" stroke="#5E5A56" stroke-width="0.8" stroke-linecap="round" stroke-linejoin="round" opacity=".35"/><path d="M132.48,317.98 q16.38,-2.9 32.76,0" fill="none" stroke="#3A3634" stroke-width="1.2" stroke-linecap="round" stroke-linejoin="round" opacity=".45"/><path d="M132.48,319.38 q16.38,-3.96 32.76,0" fill="none" stroke="#5E5A56" stroke-width="0.8" stroke-linecap="round" stroke-linejoin="round" opacity=".35"/><path d="M198.74,345.2 q39.2,-3.99 78.4,0" fill="none" stroke="#3A3634" stroke-width="1.2" stroke-linecap="round" stroke-linejoin="round" opacity=".45"/><path d="M198.74,346.6 q39.2,-3.93 78.4,0" fill="none" stroke="#5E5A56" stroke-width="0.8" stroke-linecap="round" stroke-linejoin="round" opacity=".35"/><path d="M160.86,374.07 q21.26,-3.93 42.51,0" fill="none" stroke="#3A3634" stroke-width="1.2" stroke-linecap="round" stroke-linejoin="round" opacity=".45"/><path d="M160.86,375.47 q21.26,-2.41 42.51,0" fill="none" stroke="#5E5A56" stroke-width="0.8" stroke-linecap="round" stroke-linejoin="round" opacity=".35"/><path d="M89.96,349.42 q25.3,-2.62 50.6,0" fill="none" stroke="#3A3634" stroke-width="1.2" stroke-linecap="round" stroke-linejoin="round" opacity=".45"/><path d="M89.96,350.82 q25.3,-2.12 50.6,0" fill="none" stroke="#5E5A56" stroke-width="0.8" stroke-linecap="round" stroke-linejoin="round" opacity=".35"/><ellipse cx="243.35" cy="280.73" rx="4.19" ry="2" fill="rgba(0,0,0,.28)" stroke="none"/><ellipse cx="241.95" cy="279.53" rx="3.99" ry="2.47" fill="url(#luSg)" stroke="#3C2819" stroke-width="1.1" stroke-linejoin="round" stroke-linecap="round"/><ellipse cx="240.75" cy="278.41" rx="1.2" ry="0.6" fill="#FFFFFF" stroke="none" opacity=".35"/><ellipse cx="173.67" cy="307.4" rx="6.98" ry="3.33" fill="rgba(0,0,0,.28)" stroke="none"/><ellipse cx="171.34" cy="305.4" rx="6.65" ry="4.12" fill="url(#luSg)" stroke="#3C2819" stroke-width="1.1" stroke-linejoin="round" stroke-linecap="round"/><ellipse cx="169.35" cy="303.54" rx="2" ry="1" fill="#FFFFFF" stroke="none" opacity=".35"/><ellipse cx="219.72" cy="330.73" rx="7.63" ry="3.64" fill="rgba(0,0,0,.28)" stroke="none"/><ellipse cx="217.18" cy="328.55" rx="7.27" ry="4.51" fill="url(#luSg)" stroke="#3C2819" stroke-width="1.1" stroke-linejoin="round" stroke-linecap="round"/><ellipse cx="215" cy="326.51" rx="2.18" ry="1.09" fill="#FFFFFF" stroke="none" opacity=".35"/><ellipse cx="153.46" cy="375.78" rx="8.06" ry="3.84" fill="rgba(0,0,0,.28)" stroke="none"/><ellipse cx="150.77" cy="373.48" rx="7.68" ry="4.76" fill="url(#luSg)" stroke="#3C2819" stroke-width="1.1" stroke-linejoin="round" stroke-linecap="round"/><ellipse cx="148.47" cy="371.33" rx="2.3" ry="1.15" fill="#FFFFFF" stroke="none" opacity=".35"/><ellipse cx="8.06" cy="340.31" rx="4.66" ry="2.22" fill="rgba(0,0,0,.28)" stroke="none"/><ellipse cx="6.51" cy="338.98" rx="4.44" ry="2.75" fill="url(#luSg)" stroke="#3C2819" stroke-width="1.1" stroke-linejoin="round" stroke-linecap="round"/><ellipse cx="5.18" cy="337.74" rx="1.33" ry="0.67" fill="#FFFFFF" stroke="none" opacity=".35"/><ellipse cx="113.24" cy="346.76" rx="7.33" ry="3.49" fill="rgba(0,0,0,.28)" stroke="none"/><ellipse cx="110.8" cy="344.67" rx="6.98" ry="4.33" fill="url(#luSg)" stroke="#3C2819" stroke-width="1.1" stroke-linejoin="round" stroke-linecap="round"/><ellipse cx="108.71" cy="342.72" rx="2.09" ry="1.05" fill="#FFFFFF" stroke="none" opacity=".35"/><ellipse cx="135.46" cy="278.08" rx="4.4" ry="2.1" fill="rgba(0,0,0,.28)" stroke="none"/><ellipse cx="133.99" cy="276.82" rx="4.19" ry="2.6" fill="url(#luSg)" stroke="#3C2819" stroke-width="1.1" stroke-linejoin="round" stroke-linecap="round"/><ellipse cx="132.73" cy="275.65" rx="1.26" ry="0.63" fill="#FFFFFF" stroke="none" opacity=".35"/><ellipse cx="300.28" cy="388.83" rx="5.86" ry="2.79" fill="rgba(0,0,0,.28)" stroke="none"/><ellipse cx="298.33" cy="387.16" rx="5.58" ry="3.46" fill="url(#luSg)" stroke="#3C2819" stroke-width="1.1" stroke-linejoin="round" stroke-linecap="round"/><ellipse cx="296.66" cy="385.6" rx="1.67" ry="0.84" fill="#FFFFFF" stroke="none" opacity=".35"/><ellipse cx="384.71" cy="334.4" rx="6.83" ry="3.25" fill="rgba(0,0,0,.28)" stroke="none"/><ellipse cx="382.43" cy="332.45" rx="6.5" ry="4.03" fill="url(#luSg)" stroke="#3C2819" stroke-width="1.1" stroke-linejoin="round" stroke-linecap="round"/><ellipse cx="380.48" cy="330.63" rx="1.95" ry="0.98" fill="#FFFFFF" stroke="none" opacity=".35"/><ellipse cx="75.23" cy="298.55" rx="6.13" ry="2.92" fill="rgba(0,0,0,.28)" stroke="none"/><ellipse cx="73.19" cy="296.8" rx="5.84" ry="3.62" fill="url(#luSg)" stroke="#3C2819" stroke-width="1.1" stroke-linejoin="round" stroke-linecap="round"/><ellipse cx="71.44" cy="295.16" rx="1.75" ry="0.88" fill="#FFFFFF" stroke="none" opacity=".35"/><ellipse cx="121.63" cy="290.84" rx="6.1" ry="2.91" fill="rgba(0,0,0,.28)" stroke="none"/><ellipse cx="119.6" cy="289.1" rx="5.81" ry="3.6" fill="url(#luSg)" stroke="#3C2819" stroke-width="1.1" stroke-linejoin="round" stroke-linecap="round"/><ellipse cx="117.86" cy="287.47" rx="1.74" ry="0.87" fill="#FFFFFF" stroke="none" opacity=".35"/><ellipse cx="14.78" cy="310.14" rx="2.77" ry="1.32" fill="rgba(0,0,0,.28)" stroke="none"/><ellipse cx="13.86" cy="309.35" rx="2.64" ry="1.64" fill="url(#luSg)" stroke="#3C2819" stroke-width="1.1" stroke-linejoin="round" stroke-linecap="round"/><ellipse cx="13.07" cy="308.61" rx="0.79" ry="0.4" fill="#FFFFFF" stroke="none" opacity=".35"/><ellipse cx="312.11" cy="285.43" rx="5.64" ry="2.69" fill="rgba(0,0,0,.28)" stroke="none"/><ellipse cx="310.23" cy="283.82" rx="5.37" ry="3.33" fill="url(#luSg)" stroke="#3C2819" stroke-width="1.1" stroke-linejoin="round" stroke-linecap="round"/><ellipse cx="308.62" cy="282.32" rx="1.61" ry="0.81" fill="#FFFFFF" stroke="none" opacity=".35"/><ellipse cx="215.6" cy="346.83" rx="5.16" ry="2.46" fill="rgba(0,0,0,.28)" stroke="none"/><ellipse cx="213.88" cy="345.36" rx="4.91" ry="3.04" fill="url(#luSg)" stroke="#3C2819" stroke-width="1.1" stroke-linejoin="round" stroke-linecap="round"/><ellipse cx="212.41" cy="343.99" rx="1.47" ry="0.74" fill="#FFFFFF" stroke="none" opacity=".35"/><circle cx="399.81" cy="380.94" r="0.79" fill="#7A746C" opacity="1"/><circle cx="111.98" cy="397.99" r="0.52" fill="#7A746C" opacity="0.99"/><circle cx="373.91" cy="354.16" r="0.73" fill="#7A746C" opacity="0.69"/><circle cx="319.76" cy="298.94" r="0.81" fill="#7A746C" opacity="0.84"/><circle cx="74.08" cy="325.88" r="0.69" fill="#7A746C" opacity="0.86"/><circle cx="290.59" cy="397.15" r="0.99" fill="#7A746C" opacity="0.56"/><circle cx="24.94" cy="369.71" r="0.7" fill="#7A746C" opacity="0.87"/><circle cx="0.83" cy="252.61" r="0.83" fill="#7A746C" opacity="0.9"/><circle cx="11.64" cy="250.4" r="0.51" fill="#7A746C" opacity="0.81"/><circle cx="357.64" cy="303.58" r="0.64" fill="#7A746C" opacity="0.72"/><circle cx="96.67" cy="373.57" r="0.89" fill="#7A746C" opacity="0.66"/><circle cx="236.12" cy="305.3" r="0.92" fill="#7A746C" opacity="0.88"/><circle cx="52.06" cy="322.82" r="0.72" fill="#7A746C" opacity="0.63"/><circle cx="204.98" cy="369.52" r="0.93" fill="#7A746C" opacity="0.81"/><circle cx="348.5" cy="267.03" r="0.6" fill="#7A746C" opacity="0.52"/><circle cx="238.82" cy="377.86" r="0.65" fill="#7A746C" opacity="0.51"/><circle cx="333.84" cy="284.54" r="0.61" fill="#7A746C" opacity="0.96"/><circle cx="259.32" cy="375.28" r="0.69" fill="#7A746C" opacity="0.65"/><circle cx="102.29" cy="278.75" r="0.74" fill="#7A746C" opacity="0.92"/><circle cx="205.84" cy="254.01" r="0.83" fill="#7A746C" opacity="0.92"/><circle cx="39.47" cy="289.15" r="0.58" fill="#7A746C" opacity="0.52"/><circle cx="9.69" cy="292.03" r="0.99" fill="#7A746C" opacity="0.76"/><circle cx="330.21" cy="366.55" r="0.8" fill="#7A746C" opacity="0.59"/><circle cx="365.87" cy="381.01" r="0.65" fill="#7A746C" opacity="0.59"/><circle cx="196.36" cy="325.39" r="0.68" fill="#7A746C" opacity="0.57"/><circle cx="82.97" cy="291.55" r="0.7" fill="#7A746C" opacity="0.89"/><circle cx="329.3" cy="333.11" r="0.6" fill="#7A746C" opacity="0.64"/><circle cx="361.06" cy="401.38" r="0.68" fill="#7A746C" opacity="0.73"/><circle cx="238.95" cy="255.81" r="0.53" fill="#7A746C" opacity="0.59"/><circle cx="146.97" cy="325.17" r="0.74" fill="#7A746C" opacity="0.82"/><circle cx="205.71" cy="333.36" r="0.51" fill="#7A746C" opacity="0.62"/><circle cx="220.47" cy="372.8" r="0.99" fill="#7A746C" opacity="0.8"/><circle cx="161.55" cy="257.2" r="0.51" fill="#7A746C" opacity="0.97"/><circle cx="287.29" cy="263.08" r="0.9" fill="#7A746C" opacity="0.89"/><circle cx="168.84" cy="285.57" r="0.66" fill="#7A746C" opacity="0.69"/><circle cx="326.31" cy="373.21" r="0.61" fill="#7A746C" opacity="0.92"/><circle cx="276.12" cy="362.2" r="0.99" fill="#7A746C" opacity="0.94"/><circle cx="1.32" cy="301.8" r="0.64" fill="#7A746C" opacity="0.83"/><circle cx="315.88" cy="334.74" r="0.81" fill="#7A746C" opacity="0.63"/><circle cx="274.92" cy="289.93" r="0.6" fill="#7A746C" opacity="0.69"/><defs><radialGradient id="luO" cx="0.5" cy="0.5" r="0.5"><stop offset="0" stop-color="#000000" stop-opacity="0.34"/><stop offset="0.65" stop-color="#000000" stop-opacity="0.15300000000000002"/><stop offset="1" stop-color="#000000" stop-opacity="0"/></radialGradient></defs><ellipse cx="120" cy="383" rx="54.4" ry="14.96" fill="url(#luO)"/><defs><radialGradient id="luN2" cx="0.5" cy="0.5" r="0.5"><stop offset="0" stop-color="rgb(220,230,242)" stop-opacity="0.26"/><stop offset="0.45" stop-color="rgb(220,230,242)" stop-opacity="0.156"/><stop offset="1" stop-color="rgb(220,230,242)" stop-opacity="0"/></radialGradient></defs><g><animateTransform attributeName="transform" type="translate" values="-30 0;30 0;-30 0" keySplines="0.45 0 0.55 1;0.45 0 0.55 1" keyTimes="0;0.5;1" calcMode="spline" dur="13s" begin="0s" repeatCount="indefinite" additive="sum"/><ellipse cx="-30" cy="300" rx="240" ry="39.6" fill="url(#luN2)"><animate attributeName="opacity" values="0.75;1;0.75" dur="5s" begin="-2.1s" repeatCount="indefinite"/></ellipse><ellipse cx="150" cy="310" rx="270" ry="39.6" fill="url(#luN2)"><animate attributeName="opacity" values="0.75;1;0.75" dur="5.09s" begin="-3.34s" repeatCount="indefinite"/></ellipse><ellipse cx="330" cy="294" rx="230" ry="39.6" fill="url(#luN2)"><animate attributeName="opacity" values="0.75;1;0.75" dur="5.52s" begin="-3.5s" repeatCount="indefinite"/></ellipse><ellipse cx="60" cy="284" rx="180" ry="39.6" fill="url(#luN2)"><animate attributeName="opacity" values="0.75;1;0.75" dur="5.75s" begin="-2.86s" repeatCount="indefinite"/></ellipse><ellipse cx="260" cy="316" rx="200" ry="39.6" fill="url(#luN2)"><animate attributeName="opacity" values="0.75;1;0.75" dur="7.87s" begin="-2.96s" repeatCount="indefinite"/></ellipse></g><g transform="translate(298 232)"><g><animateMotion dur="11s" repeatCount="indefinite" calcMode="spline" keyPoints="0;0.34;0.34;0.68;0.68;1" keyTimes="0;0.27;0.4;0.66;0.78;1" keySplines="0.45 0 0.55 1;0 0 1 1;0.45 0 0.55 1;0 0 1 1;0.45 0 0.55 1" path="M0,0 C-20,-6 -48,-10 -62,-20 C-44,-38 -4,-44 22,-36 C34,-22 18,-6 0,0"/><defs><radialGradient id="luG" cx="0.5" cy="0.5" r="0.5"><stop offset="0" stop-color="rgb(200,225,245)" stop-opacity="0.2"/><stop offset="1" stop-color="rgb(200,225,245)" stop-opacity="0"/></radialGradient></defs><circle cx="0" cy="-10" r="90" fill="url(#luG)"><animate attributeName="r" values="76.5;99;76.5" dur="3.4s" begin="0s" repeatCount="indefinite"/></circle><defs><radialGradient id="luBH" cx="0.5" cy="0.5" r="0.5"><stop offset="0" stop-color="rgb(210,230,248)" stop-opacity="0.5"/><stop offset="1" stop-color="rgb(210,230,248)" stop-opacity="0"/></radialGradient></defs><circle cx="0" cy="-25.2" r="54" fill="url(#luBH)"><animate attributeName="r" values="45.9;59.4;45.9" dur="2.4s" begin="0s" repeatCount="indefinite"/></circle><defs><radialGradient id="luBT" cx="0.5" cy="0.5" r="0.5"><stop offset="0" stop-color="rgb(200,225,245)" stop-opacity="0.36"/><stop offset="0.5" stop-color="rgb(200,225,245)" stop-opacity="0.144"/><stop offset="1" stop-color="rgb(200,225,245)" stop-opacity="0"/></radialGradient></defs><ellipse cx="0" cy="28" rx="61.2" ry="14.4" fill="url(#luBT)"><animate attributeName="opacity" values="0.82;1;0.82" dur="3.12s" begin="0s" repeatCount="indefinite"/></ellipse><g transform="translate(0 0)"><g><animateTransform attributeName="transform" type="translate" values="0 0;0 -5.76;0 0" keySplines="0.45 0 0.55 1;0.45 0 0.55 1" keyTimes="0;0.5;1" calcMode="spline" dur="2.4s" begin="0s" repeatCount="indefinite" additive="sum"/><animateTransform attributeName="transform" type="rotate" values="-3;3;-3" keySplines="0.45 0 0.55 1;0.45 0 0.55 1" keyTimes="0;0.5;1" calcMode="spline" dur="3.84s" begin="0s" repeatCount="indefinite" additive="sum"/><g><animateTransform attributeName="transform" type="skewX" values="-2.5;2.5;-2.5" keySplines="0.45 0 0.55 1;0.45 0 0.55 1" keyTimes="0;0.5;1" calcMode="spline" dur="2.16s" begin="-0.72s" repeatCount="indefinite" additive="sum"/><g><animateTransform attributeName="transform" type="translate" values="0 0;0.81 0;0 0" keySplines="0.45 0 0.55 1;0.45 0 0.55 1" keyTimes="0;0.5;1" calcMode="spline" dur="0.5s" begin="0s" repeatCount="indefinite" additive="sum"/><g transform="translate(-36 -57.6) scale(1.8)"><defs><radialGradient id="bhs00"><stop offset="0" stop-color="rgb(200,220,230)" stop-opacity="0.55"/><stop offset="1" stop-color="rgb(200,220,230)" stop-opacity="0"/></radialGradient></defs><circle cx="20" cy="28" r="17" fill="url(#bhs00)"/><path d="M20,40 C30.4,40 29.2,28.4 20,15.6 C10.8,28.4 9.6,40 20,40 Z" fill="#B8CDD6" stroke="#6E8792" stroke-width="1.1" stroke-linejoin="round" stroke-linecap="round"/><path d="M20,39.36 C28.32,39.36 27.36,30.08 20,20.5 C12.64,30.08 11.68,39.36 20,39.36 Z" fill="#EEF5F7" stroke="none"/><path d="M20,39.04 C25.2,39.04 24.6,33.24 20,28.07 C15.4,33.24 14.8,39.04 20,39.04 Z" fill="#FFFFFF" stroke="none"/><ellipse cx="20" cy="21.6" rx="0.9" ry="0.9" fill-opacity="0.95" fill="rgb(200,220,230)" stroke="none"/><ellipse cx="13.72" cy="16.8" rx="0.73" ry="0.73" fill-opacity="0.72" fill="rgb(200,220,230)" stroke="none"/><ellipse cx="26.15" cy="12" rx="0.57" ry="0.57" fill-opacity="0.48" fill="rgb(200,220,230)" stroke="none"/><ellipse cx="16.8" cy="31.6" rx="1.35" ry="1.9" fill="#1D3557" stroke="none"/><ellipse cx="17.35" cy="30.6" rx="0.62" ry="0.62" fill="#FFFFFF" stroke="none"/><ellipse cx="16.3" cy="32.6" rx="0.3" ry="0.3" fill="#FFFFFF" stroke="none"/><ellipse cx="23.2" cy="31.6" rx="1.35" ry="1.9" fill="#1D3557" stroke="none"/><ellipse cx="23.75" cy="30.6" rx="0.62" ry="0.62" fill="#FFFFFF" stroke="none"/><ellipse cx="22.7" cy="32.6" rx="0.3" ry="0.3" fill="#FFFFFF" stroke="none"/></g></g></g></g></g></g></g></svg>
