<svg xmlns="http://www.w3.org/2000/svg" width="30" height="25" viewBox="-15 -22.5 30 25"><ellipse cx="-0.8" cy="-0.2" rx="4.5" ry="1.3" fill="rgba(40,55,20,.18)" stroke="none"/><path d="M-1.6,-3.88 L-1.6,-0.6" stroke="#3C2819" stroke-width="2.9" stroke-linecap="round"/><path d="M-1.6,-3.88 L-1.6,-0.6" stroke="#F2B33B" stroke-width="0.7" stroke-linecap="round"/><path d="M-2.4,-0.4 L-0.2,-0.4" stroke="#3C2819" stroke-width="1.6" stroke-linecap="round"/><path d="M-2.4,-0.4 L-0.2,-0.4" stroke="#F2B33B" stroke-width="0.7" stroke-linecap="round"/><path d="M0.6,-3.88 L0.6,-0.6" stroke="#3C2819" stroke-width="2.9" stroke-linecap="round"/><path d="M0.6,-3.88 L0.6,-0.6" stroke="#F2B33B" stroke-width="0.7" stroke-linecap="round"/><path d="M-0.2,-0.4 L2,-0.4" stroke="#3C2819" stroke-width="1.6" stroke-linecap="round"/><path d="M-0.2,-0.4 L2,-0.4" stroke="#F2B33B" stroke-width="0.7" stroke-linecap="round"/><path d="M-4.05,-7.36 L-8.05,-6.16 L-4.05,-4.96 Z" fill="#3A3A44" stroke="#3C2819" stroke-width="1.1" stroke-linejoin="round" stroke-linecap="round"/><path d="M-5.8,-6.4 a5,3.6 0 1,0 10,0 a5,3.6 0 1,0 -10,0 Z" fill="#FFFFFF" stroke="#3C2819" stroke-width="1.1" stroke-linejoin="round" stroke-linecap="round"/><clipPath id="bgulljoie"><path d="M-5.8,-6.4 a5,3.6 0 1,0 10,0 a5,3.6 0 1,0 -10,0 Z"/></clipPath><g clip-path="url(#bgulljoie)"><rect x="-6.8" y="-11" width="12" height="9.2" fill="#DBDBDB"/><ellipse cx="-1.3" cy="-6.98" rx="4.9" ry="3.24" fill="#FFFFFF"/><ellipse cx="0.95" cy="-4.96" rx="3.75" ry="2.7" fill="#FFFFFF"/></g><path d="M-5.8,-6.4 a5,3.6 0 1,0 10,0 a5,3.6 0 1,0 -10,0 Z" fill="none" stroke="#3C2819" stroke-width="1.1" stroke-linejoin="round" stroke-linecap="round"/><path d="M-3.8,-7.66 Q0.2,-9.1 1.45,-6.58 Q-0.8,-4.06 -5.55,-5.5 Z" fill="#A8B4C2" stroke="#3C2819" stroke-width="0.9" stroke-linejoin="round" stroke-linecap="round"/><path d="M0.8,-10.4 a2.6,2.6 0 1,0 5.2,0 a2.6,2.6 0 1,0 -5.2,0 Z" fill="#FFFFFF" stroke="#3C2819" stroke-width="1.1" stroke-linejoin="round" stroke-linecap="round"/><clipPath id="bgulljoieh"><path d="M0.8,-10.4 a2.6,2.6 0 1,0 5.2,0 a2.6,2.6 0 1,0 -5.2,0 Z"/></clipPath><g clip-path="url(#bgulljoieh)"><rect x="-0.2" y="-14" width="7.2" height="7.2" fill="#E0E0E0"/><ellipse cx="3.09" cy="-10.76" rx="2.52" ry="2.39" fill="#FFFFFF"/></g><path d="M0.8,-10.4 a2.6,2.6 0 1,0 5.2,0 a2.6,2.6 0 1,0 -5.2,0 Z" fill="none" stroke="#3C2819" stroke-width="1.1" stroke-linejoin="round" stroke-linecap="round"/><path d="M5.21,-10.9 L8.41,-9.8 L5.21,-9.1 Z" fill="#F2C94C" stroke="#3C2819" stroke-width="0.8" stroke-linejoin="round" stroke-linecap="round"/><path d="M3.3,-10.52 Q4,-11.43 4.7,-10.52" fill="none" stroke="#3C2819" stroke-width="0.9" stroke-linejoin="round" stroke-linecap="round"/><ellipse cx="3.86" cy="-9.75" rx="0.56" ry="0.28" fill="#F7A8B0" stroke="none"/><ellipse cx="7.81" cy="-9.7" rx="0.4" ry="0.35" fill="#E8483C" stroke="none"/><path d="M3.4,-14.08 C1.24,-15.52 2.32,-17.08 3.4,-16 C4.48,-17.08 5.56,-15.52 3.4,-14.08 Z" fill="#F27A8A" stroke="#3C2819" stroke-width="0.6" stroke-linejoin="round" stroke-linecap="round"/></svg>
