<svg xmlns="http://www.w3.org/2000/svg" width="48" height="64" viewBox="0 0 48 64"><defs><linearGradient id="v11cuneaction0G0" x1="0" y1="0" x2="0.75" y2="1"><stop offset="0" stop-color="#B0704F"/><stop offset="0.45" stop-color="#6B4430"/><stop offset="1" stop-color="#4F3224"/></linearGradient><linearGradient id="v11cuneaction0G0t" gradientUnits="userSpaceOnUse" x1="4" y1="2" x2="42" y2="60"><stop offset="0" stop-color="#B0704F"/><stop offset="0.45" stop-color="#6B4430"/><stop offset="1" stop-color="#4F3224"/></linearGradient><linearGradient id="v11cuneaction0G1" x1="0" y1="0" x2="0.75" y2="1"><stop offset="0" stop-color="#D86379"/><stop offset="0.45" stop-color="#C0304A"/><stop offset="1" stop-color="#8E2437"/></linearGradient><linearGradient id="v11cuneaction0G1t" gradientUnits="userSpaceOnUse" x1="4" y1="2" x2="42" y2="60"><stop offset="0" stop-color="#D86379"/><stop offset="0.45" stop-color="#C0304A"/><stop offset="1" stop-color="#8E2437"/></linearGradient><linearGradient id="v11cuneaction0G2" x1="0" y1="0" x2="0.75" y2="1"><stop offset="0" stop-color="#A2D5BB"/><stop offset="0.45" stop-color="#7EC4A0"/><stop offset="1" stop-color="#4BA476"/></linearGradient><linearGradient id="v11cuneaction0G2t" gradientUnits="userSpaceOnUse" x1="6" y1="28" x2="42" y2="60"><stop offset="0" stop-color="#A2D5BB"/><stop offset="0.45" stop-color="#7EC4A0"/><stop offset="1" stop-color="#4BA476"/></linearGradient><linearGradient id="v11cuneaction0G3" x1="0" y1="0" x2="0.75" y2="1"><stop offset="0" stop-color="#4E68AC"/><stop offset="0.45" stop-color="#2E3E66"/><stop offset="1" stop-color="#222E4B"/></linearGradient><linearGradient id="v11cuneaction0G3t" gradientUnits="userSpaceOnUse" x1="6" y1="28" x2="42" y2="60"><stop offset="0" stop-color="#4E68AC"/><stop offset="0.45" stop-color="#2E3E66"/><stop offset="1" stop-color="#222E4B"/></linearGradient><linearGradient id="v11cuneaction0G4" x1="0" y1="0" x2="0.75" y2="1"><stop offset="0" stop-color="#6584BB"/><stop offset="0.45" stop-color="#3E5A8C"/><stop offset="1" stop-color="#2E4368"/></linearGradient><linearGradient id="v11cuneaction0G4t" gradientUnits="userSpaceOnUse" x1="4" y1="2" x2="42" y2="60"><stop offset="0" stop-color="#6584BB"/><stop offset="0.45" stop-color="#3E5A8C"/><stop offset="1" stop-color="#2E4368"/></linearGradient><linearGradient id="v11cuneaction0G5" x1="0" y1="0" x2="0.75" y2="1"><stop offset="0" stop-color="#C8626A"/><stop offset="0.45" stop-color="#A03840"/><stop offset="1" stop-color="#76292F"/></linearGradient><linearGradient id="v11cuneaction0G5t" gradientUnits="userSpaceOnUse" x1="4" y1="2" x2="42" y2="60"><stop offset="0" stop-color="#C8626A"/><stop offset="0.45" stop-color="#A03840"/><stop offset="1" stop-color="#76292F"/></linearGradient><linearGradient id="v11cuneaction0G6" x1="0" y1="0" x2="0.75" y2="1"><stop offset="0" stop-color="#D77A97"/><stop offset="0.45" stop-color="#C8466E"/><stop offset="1" stop-color="#9A2E4F"/></linearGradient><linearGradient id="v11cuneaction0G6t" gradientUnits="userSpaceOnUse" x1="4" y1="2" x2="42" y2="60"><stop offset="0" stop-color="#D77A97"/><stop offset="0.45" stop-color="#C8466E"/><stop offset="1" stop-color="#9A2E4F"/></linearGradient><linearGradient id="v11cuneaction0G7" x1="0" y1="0" x2="0.75" y2="1"><stop offset="0" stop-color="#6C6262"/><stop offset="0.45" stop-color="#2E2A2A"/><stop offset="1" stop-color="#1F1D1D"/></linearGradient><linearGradient id="v11cuneaction0G7t" gradientUnits="userSpaceOnUse" x1="4" y1="2" x2="42" y2="60"><stop offset="0" stop-color="#6C6262"/><stop offset="0.45" stop-color="#2E2A2A"/><stop offset="1" stop-color="#1F1D1D"/></linearGradient></defs><g transform="translate(0 0)"><path d="M19.2,24.6 L28.8,24.6 L29.2,33.6 L18.8,33.6 Z" fill="#5E3C2A" stroke="#3C2819" stroke-width="1.1" stroke-linejoin="round" stroke-linecap="round"/><rect x="25.08" y="44.5" width="5.4" height="13.2" rx="1.6" fill="url(#v11cuneaction0G3t)" stroke="#3C2819" stroke-width="1.1" stroke-linejoin="round" stroke-linecap="round"/><rect x="28.88" y="45.1" width="1.1" height="11.6" rx="0.5" fill="#243050"/><path d="M24.78,56.5 L30.78,56.5 L31.08,60.1 Q27.38,61.9 24.48,60.3 Z" fill="url(#v11cuneaction0G4)" stroke="#3C2819" stroke-width="1.1" stroke-linejoin="round" stroke-linecap="round"/><clipPath id="v11cuneaction0s278565"><path d="M24.78,56.5 L30.78,56.5 L31.08,60.1 Q27.38,61.9 24.48,60.3 Z"/></clipPath><g clip-path="url(#v11cuneaction0s278565)"><path d="M24.38,59.8 Q27.38,61.5 31.18,59.6 L31.18,62.1 L24.38,62.1 Z" fill="#2D4165"/></g><path d="M24.78,56.5 L30.78,56.5 L31.08,60.1 Q27.38,61.9 24.48,60.3 Z" fill="none" stroke="#3C2819" stroke-width="1.1" stroke-linejoin="round" stroke-linecap="round"/><ellipse cx="26.78" cy="58.1" rx="0.9" ry="0.5" fill="#5F7FB8" stroke="none"/><rect x="18.53" y="44.5" width="5.4" height="13.2" rx="1.6" fill="url(#v11cuneaction0G3t)" stroke="#3C2819" stroke-width="1.1" stroke-linejoin="round" stroke-linecap="round"/><rect x="22.33" y="45.1" width="1.1" height="11.6" rx="0.5" fill="#243050"/><path d="M18.23,56.5 L24.23,56.5 L24.53,60.1 Q20.83,61.9 17.93,60.3 Z" fill="url(#v11cuneaction0G4)" stroke="#3C2819" stroke-width="1.1" stroke-linejoin="round" stroke-linecap="round"/><clipPath id="v11cuneaction0s212565"><path d="M18.23,56.5 L24.23,56.5 L24.53,60.1 Q20.83,61.9 17.93,60.3 Z"/></clipPath><g clip-path="url(#v11cuneaction0s212565)"><path d="M17.83,59.8 Q20.83,61.5 24.63,59.6 L24.63,62.1 L17.83,62.1 Z" fill="#2D4165"/></g><path d="M18.23,56.5 L24.23,56.5 L24.53,60.1 Q20.83,61.9 17.93,60.3 Z" fill="none" stroke="#3C2819" stroke-width="1.1" stroke-linejoin="round" stroke-linecap="round"/><ellipse cx="20.23" cy="58.1" rx="0.9" ry="0.5" fill="#5F7FB8" stroke="none"/><path d="M14.6,32.6 Q24,30 33.4,32.6 Q33.55,39.6 33.7,46.6 Q24,49.6 14.3,46.6 Q14.45,39.6 14.6,32.6 Z" fill="url(#v11cuneaction0G2t)" stroke="#3C2819" stroke-width="1.1" stroke-linejoin="round" stroke-linecap="round"/><clipPath id="v11cuneaction0t"><path d="M14.6,32.6 Q24,30 33.4,32.6 Q33.55,39.6 33.7,46.6 Q24,49.6 14.3,46.6 Q14.45,39.6 14.6,32.6 Z"/></clipPath><g clip-path="url(#v11cuneaction0t)"><rect x="27.2" y="30" width="14" height="22" fill="#56B283"/><path d="M8,46 Q24,49 40,46 L40,52 L8,52 Z" fill="#56B283"/><rect x="14.7" y="34" width="1.3" height="10" rx="0.6" fill="#A2D5BB"/></g><path d="M14.6,32.6 Q24,30 33.4,32.6 Q33.55,39.6 33.7,46.6 Q24,49.6 14.3,46.6 Q14.45,39.6 14.6,32.6 Z" fill="none" stroke="#3C2819" stroke-width="1.1" stroke-linejoin="round" stroke-linecap="round"/><path d="M24,33.8 L24,47.4" fill="none" stroke="#3C2819" stroke-width="0.5" stroke-linejoin="round" stroke-linecap="round"/><path d="M17.6,31.4 Q24,34.4 30.4,31.4 L30,33.6 Q24,36.2 18,33.6 Z" fill="#56B283" stroke="#3C2819" stroke-width="0.8" stroke-linejoin="round" stroke-linecap="round"/><path d="M33.47,34.94 L35.9,39 L35.3,43.4" fill="none" stroke="#3C2819" stroke-width="6.25" stroke-linecap="round" stroke-linejoin="round"/><path d="M33.47,34.94 L35.9,39 L35.3,43.4" fill="none" stroke="url(#v11cuneaction0G2t)" stroke-width="4.05" stroke-linecap="round" stroke-linejoin="round"/><line x1="35.64" y1="40.92" x2="35.42" y2="42.51" stroke="#3C2819" stroke-width="6.25" stroke-linecap="round"/><line x1="35.64" y1="40.92" x2="35.42" y2="42.51" stroke="#56B283" stroke-width="4.05" stroke-linecap="round"/><ellipse cx="35.3" cy="43.4" rx="2.1" ry="2.1" fill="url(#v11cuneaction0G0)" stroke="#3C2819" stroke-width="1.1" stroke-linejoin="round" stroke-linecap="round"/><path d="M30.98,48.4 Q35.3,40.8 39.62,48.4" fill="none" stroke="#3C2819" stroke-width="2.4" stroke-linecap="round"/><path d="M30.98,48.4 Q35.3,40.8 39.62,48.4" fill="none" stroke="#C99A5A" stroke-width="1" stroke-linecap="round"/><ellipse cx="35.3" cy="48.4" rx="5.4" ry="1.3" fill="#7A5A30" stroke="#3C2819" stroke-width="0.8" stroke-linejoin="round" stroke-linecap="round"/><ellipse cx="32.7" cy="48.3" rx="1.23" ry="1.15" fill="#E2463A" stroke="#3C2819" stroke-width="0.7" stroke-linejoin="round" stroke-linecap="round"/><ellipse cx="32.28" cy="47.92" rx="0.34" ry="0.26" fill-opacity="0.7" fill="#FFFFFF" stroke="none"/><line x1="32.7" y1="47.28" x2="32.96" y2="46.52" stroke="#3C2819" stroke-width="0.5" stroke-linecap="round"/><path d="M32.96,46.68 q1.2,-0.9 1.9,-0.1 q-1,0.7 -1.9,0.1 Z" fill="#6FB24E" stroke="#3C2819" stroke-width="0.4" stroke-linejoin="round" stroke-linecap="round"/><ellipse cx="37.9" cy="48.4" rx="1.23" ry="1.15" fill="#E2463A" stroke="#3C2819" stroke-width="0.7" stroke-linejoin="round" stroke-linecap="round"/><ellipse cx="37.48" cy="48.02" rx="0.34" ry="0.26" fill-opacity="0.7" fill="#FFFFFF" stroke="none"/><line x1="37.9" y1="47.38" x2="38.16" y2="46.62" stroke="#3C2819" stroke-width="0.5" stroke-linecap="round"/><path d="M38.16,46.79 q1.2,-0.9 1.9,-0.1 q-1,0.7 -1.9,0.1 Z" fill="#6FB24E" stroke="#3C2819" stroke-width="0.4" stroke-linejoin="round" stroke-linecap="round"/><ellipse cx="35.3" cy="47.9" rx="1.23" ry="1.15" fill="#F2A63A" stroke="#3C2819" stroke-width="0.7" stroke-linejoin="round" stroke-linecap="round"/><ellipse cx="34.88" cy="47.52" rx="0.34" ry="0.26" fill-opacity="0.7" fill="#FFFFFF" stroke="none"/><line x1="35.3" y1="46.88" x2="35.56" y2="46.12" stroke="#3C2819" stroke-width="0.5" stroke-linecap="round"/><path d="M35.56,46.29 q1.2,-0.9 1.9,-0.1 q-1,0.7 -1.9,0.1 Z" fill="#6FB24E" stroke="#3C2819" stroke-width="0.4" stroke-linejoin="round" stroke-linecap="round"/><path d="M29.9,48.4 L31.09,53.4 Q35.3,54.6 39.51,53.4 L40.7,48.4 Q35.3,49.7 29.9,48.4 Z" fill="#C99A5A" stroke="#3C2819" stroke-width="1.1" stroke-linejoin="round" stroke-linecap="round"/><path d="M30.38,50.4 Q35.3,51.5 40.22,50.4" fill="none" stroke="#A67A40" stroke-width="0.5"/><path d="M30.46,52 Q35.3,53.1 40.14,52" fill="none" stroke="#A67A40" stroke-width="0.5"/><line x1="32.5" y1="49.6" x2="32.92" y2="53.8" stroke="#A67A40" stroke-width="0.45" stroke-linecap="round"/><line x1="35.3" y1="49.6" x2="35.3" y2="53.8" stroke="#A67A40" stroke-width="0.45" stroke-linecap="round"/><line x1="38.1" y1="49.6" x2="37.68" y2="53.8" stroke="#A67A40" stroke-width="0.45" stroke-linecap="round"/><path d="M29.9,48.4 Q35.3,51 40.7,48.4" fill="none" stroke="#3C2819" stroke-width="2.3" stroke-linecap="round"/><path d="M29.9,48.4 Q35.3,51 40.7,48.4" fill="none" stroke="#E2B878" stroke-width="1" stroke-linecap="round"/><line x1="16.2" y1="31.8" x2="32.3" y2="44.2" stroke="#3C2819" stroke-width="3.5" stroke-linecap="round"/><line x1="16.2" y1="31.8" x2="32.3" y2="44.2" stroke="#A73255" stroke-width="1.3" stroke-linecap="round"/><path d="M28.9,42.6 L36.1,42.6 L35.9,48 Q32.5,48.8 29.1,48 Z" fill="url(#v11cuneaction0G6)" stroke="#3C2819" stroke-width="1.1" stroke-linejoin="round" stroke-linecap="round"/><path d="M28.9,42.6 L36.1,42.6 L36,45.2 Q32.5,46.4 29,45.2 Z" fill="#A73255" stroke="#3C2819" stroke-width="0.8" stroke-linejoin="round" stroke-linecap="round"/><ellipse cx="32.5" cy="45.4" rx="0.6" ry="0.6" fill="#E8C46A" stroke="#3C2819" stroke-width="0.5" stroke-linejoin="round" stroke-linecap="round"/><path d="M14.06,34.36 L8.7,36.2 L6.7,30.4" fill="none" stroke="#3C2819" stroke-width="6.25" stroke-linecap="round" stroke-linejoin="round"/><path d="M14.06,34.36 L8.7,36.2 L6.7,30.4" fill="none" stroke="url(#v11cuneaction0G2t)" stroke-width="4.05" stroke-linecap="round" stroke-linejoin="round"/><line x1="7.51" y1="32.76" x2="6.99" y2="31.25" stroke="#3C2819" stroke-width="6.25" stroke-linecap="round"/><line x1="7.51" y1="32.76" x2="6.99" y2="31.25" stroke="#56B283" stroke-width="4.05" stroke-linecap="round"/><ellipse cx="6.7" cy="30.4" rx="2.1" ry="2.1" fill="url(#v11cuneaction0G0)" stroke="#3C2819" stroke-width="1.1" stroke-linejoin="round" stroke-linecap="round"/><ellipse cx="6.4" cy="28.4" rx="1.45" ry="1.35" fill="#E2463A" stroke="#3C2819" stroke-width="0.7" stroke-linejoin="round" stroke-linecap="round"/><ellipse cx="5.9" cy="27.95" rx="0.4" ry="0.3" fill-opacity="0.7" fill="#FFFFFF" stroke="none"/><line x1="6.4" y1="27.2" x2="6.7" y2="26.3" stroke="#3C2819" stroke-width="0.5" stroke-linecap="round"/><path d="M6.7,26.5 q1.2,-0.9 1.9,-0.1 q-1,0.7 -1.9,0.1 Z" fill="#6FB24E" stroke="#3C2819" stroke-width="0.4" stroke-linejoin="round" stroke-linecap="round"/><path d="M11.6,21 Q10.8,8 24,7.6 Q37.2,8 36.4,21 Q36.8,29.6 35.2,32.2 Q24,35.4 12.8,32.2 Q11.2,29.6 11.6,21 Z" fill="url(#v11cuneaction0G0)" stroke="#3C2819" stroke-width="1.1" stroke-linejoin="round" stroke-linecap="round"/><clipPath id="v11cuneaction0rz"><path d="M11.6,21 Q10.8,8 24,7.6 Q37.2,8 36.4,21 Q36.8,29.6 35.2,32.2 Q24,35.4 12.8,32.2 Q11.2,29.6 11.6,21 Z"/></clipPath><g clip-path="url(#v11cuneaction0rz)"><path d="M8,31.6 Q24,34.4 40,31.6 L40,40 L8,40 Z" fill="#5E3C2A"/><path d="M8,4 L40,4 L40,27.4 Q34.6,29.6 31,28.6 Q27.6,30.4 24,29.8 Q20.4,30.4 17,28.6 Q13.4,29.6 8,27.4 Z" fill="url(#v11cuneaction0G5)"/><path d="M14,28.8 Q17.4,30 20.4,29.4 M27.6,29.4 Q30.6,30 34,28.8" fill="none" stroke="#3C2819" stroke-width="0.45" stroke-linejoin="round" stroke-linecap="round"/><line x1="17.4" y1="12" x2="17.8" y2="13" stroke="#7D2C32" stroke-width="0.5" stroke-linecap="round"/><line x1="21.4" y1="10.4" x2="21.8" y2="11.4" stroke="#7D2C32" stroke-width="0.5" stroke-linecap="round"/><line x1="26.6" y1="10.6" x2="27" y2="11.6" stroke="#7D2C32" stroke-width="0.5" stroke-linecap="round"/><line x1="30.6" y1="12.4" x2="31" y2="13.4" stroke="#7D2C32" stroke-width="0.5" stroke-linecap="round"/><line x1="19" y1="17" x2="19.4" y2="18" stroke="#7D2C32" stroke-width="0.5" stroke-linecap="round"/><line x1="24" y1="16.2" x2="24.4" y2="17.2" stroke="#7D2C32" stroke-width="0.5" stroke-linecap="round"/><line x1="29" y1="17.2" x2="29.4" y2="18.2" stroke="#7D2C32" stroke-width="0.5" stroke-linecap="round"/><line x1="16.4" y1="21.4" x2="16.8" y2="22.4" stroke="#7D2C32" stroke-width="0.5" stroke-linecap="round"/><line x1="31.6" y1="21.4" x2="32" y2="22.4" stroke="#7D2C32" stroke-width="0.5" stroke-linecap="round"/><line x1="17" y1="10.6" x2="21.4" y2="8.8" stroke="#C65C64" stroke-width="1.1" stroke-linecap="round"/></g><path d="M11.6,21 Q10.8,8 24,7.6 Q37.2,8 36.4,21 Q36.8,29.6 35.2,32.2 Q24,35.4 12.8,32.2 Q11.2,29.6 11.6,21 Z" fill="none" stroke="#3C2819" stroke-width="1.1" stroke-linejoin="round" stroke-linecap="round"/><ellipse cx="11.6" cy="22.6" rx="1.5" ry="2.1" fill="url(#v11cuneaction0G0)" stroke="#3C2819" stroke-width="1.1" stroke-linejoin="round" stroke-linecap="round"/><ellipse cx="36.4" cy="22.6" rx="1.5" ry="2.1" fill="url(#v11cuneaction0G0)" stroke="#3C2819" stroke-width="1.1" stroke-linejoin="round" stroke-linecap="round"/></g></svg>
