<svg xmlns="http://www.w3.org/2000/svg" width="192" height="192" viewBox="-8 -8 48 48"><circle cx="16" cy="16" r="22" fill="none" stroke="#FFE07A" stroke-width="0.72" opacity="0.3"/><path d="M32.51,25.99 Q32.71,27.08 33.81,27.29 Q32.71,27.5 32.51,28.59 Q32.3,27.5 31.21,27.29 Q32.3,27.08 32.51,25.99 Z" fill="#FFFBE8"/><path d="M19.69,34.36 Q19.89,35.45 20.99,35.66 Q19.89,35.87 19.69,36.96 Q19.48,35.87 18.39,35.66 Q19.48,35.45 19.69,34.36 Z" fill="#FFE07A"/><path d="M4.71,31.21 Q4.92,32.3 6.01,32.51 Q4.92,32.71 4.71,33.81 Q4.5,32.71 3.41,32.51 Q4.5,32.3 4.71,31.21 Z" fill="#FFFBE8"/><path d="M-3.66,18.39 Q-3.45,19.48 -2.36,19.69 Q-3.45,19.89 -3.66,20.99 Q-3.87,19.89 -4.96,19.69 Q-3.87,19.48 -3.66,18.39 Z" fill="#FFE07A"/><path d="M-0.51,3.41 Q-0.3,4.5 0.79,4.71 Q-0.3,4.92 -0.51,6.01 Q-0.71,4.92 -1.81,4.71 Q-0.71,4.5 -0.51,3.41 Z" fill="#FFFBE8"/><path d="M12.31,-4.96 Q12.52,-3.87 13.61,-3.66 Q12.52,-3.45 12.31,-2.36 Q12.11,-3.45 11.01,-3.66 Q12.11,-3.87 12.31,-4.96 Z" fill="#FFE07A"/><path d="M27.29,-1.81 Q27.5,-0.71 28.59,-0.51 Q27.5,-0.3 27.29,0.79 Q27.08,-0.3 25.99,-0.51 Q27.08,-0.71 27.29,-1.81 Z" fill="#FFFBE8"/><path d="M35.66,11.01 Q35.87,12.11 36.96,12.31 Q35.87,12.52 35.66,13.61 Q35.45,12.52 34.36,12.31 Q35.45,12.11 35.66,11.01 Z" fill="#FFE07A"/></svg>
