<svg xmlns="http://www.w3.org/2000/svg" viewBox="0 0 64 64">
<path d="M32 4c12 4 20 16 20 30s-8 26-20 26-20-12-20-26S20 8 32 4z" fill="#a8582a" stroke="#4a2410" stroke-width="2.5" stroke-linejoin="round"/>
<g fill="none" stroke="#7a3a18" stroke-width="2"><path d="M32 6c-4 10-4 40 0 52M32 6c4 10 4 40 0 52M22 14c-4 10-4 28 0 40M42 14c4 10 4 28 0 40"/></g>
<g fill="#6a3a1a" stroke="#3a1a0a" stroke-width="1.6"><ellipse cx="54" cy="48" rx="5" ry="7" transform="rotate(30 54 48)"/><ellipse cx="10" cy="50" rx="5" ry="7" transform="rotate(-30 10 50)"/></g>
<path d="M20 22c0-6 4-12 8-14" stroke="#e8a070" stroke-width="2.4" stroke-linecap="round" fill="none"/>
</svg>
