<svg xmlns="http://www.w3.org/2000/svg" viewBox="0 0 64 64">
<path d="M14 34c0-8 8-12 18-12s18 4 18 12-8 14-18 14-18-6-18-14z" fill="#e2483a" stroke="#7a1410" stroke-width="2.5"/>
<g stroke="#7a1410" stroke-width="3" stroke-linecap="round" fill="none"><path d="M18 42l-8 6-2 6M22 46l-4 8M42 46l4 8M46 42l8 6 2 6"/></g>
<path d="M18 28l-8-8M46 28l8-8" stroke="#7a1410" stroke-width="3" stroke-linecap="round"/>
<path d="M4 16c0-6 6-10 10-6l-2 4 4 2c-2 4-10 6-12 0zM60 16c0-6-6-10-10-6l2 4-4 2c2 4 10 6 12 0z" fill="#e2483a" stroke="#7a1410" stroke-width="2.2" stroke-linejoin="round"/>
<path d="M26 22v-6M38 22v-6" stroke="#7a1410" stroke-width="2"/><circle cx="26" cy="14" r="2.4" fill="#1e1a16"/><circle cx="25.2" cy="13.2" r="0.8" fill="#ffffff"/><circle cx="38" cy="14" r="2.4" fill="#1e1a16"/><circle cx="37.2" cy="13.2" r="0.8" fill="#ffffff"/>
<path d="M26 36c4 3 8 3 12 0" stroke="#7a1410" stroke-width="2" fill="none" stroke-linecap="round"/>
</svg>
