<svg xmlns="http://www.w3.org/2000/svg" viewBox="0 0 64 64">
<circle cx="32" cy="34" r="26" fill="#f8d8a8" stroke="#8a5a3a" stroke-width="2.5"/><circle cx="23" cy="32" r="3" fill="#3a2418"/><circle cx="41" cy="32" r="3" fill="#3a2418"/><path d="M16 25l10 3M48 25l-10 3" stroke="#3a2418" stroke-width="2.4" stroke-linecap="round"/><path d="M20 48q3-3 6 0t6 0 6 0 6 0" fill="none" stroke="#3a2418" stroke-width="2.6" stroke-linecap="round"/><path d="M48 12c-2 3-3 5-3 6.5a3 3 0 0 0 6 0c0-1.5-1-3.5-3-6.5z" fill="#6ac0f4" stroke="#2a7ab8" stroke-width="1.4"/><path d="M54 22c-2 3-3 5-3 6.5a3 3 0 0 0 6 0c0-1.5-1-3.5-3-6.5z" fill="#6ac0f4" stroke="#2a7ab8" stroke-width="1.4"/>
</svg>
